G75*
%MOIN*%
%OFA0B0*%
%FSLAX25Y25*%
%IPPOS*%
%LPD*%
%AMOC8*
5,1,8,0,0,1.08239X$1,22.5*
%
%ADD10OC8,0.05200*%
%ADD11C,0.06000*%
%ADD12R,0.07874X0.04724*%
%ADD13R,0.04724X0.07874*%
%ADD14R,0.07874X0.06299*%
%ADD15R,0.06299X0.07874*%
%ADD16C,0.07400*%
%ADD17R,0.08661X0.02362*%
%ADD18OC8,0.05600*%
%ADD19R,0.06299X0.07087*%
%ADD20C,0.06496*%
%ADD21R,0.09449X0.09449*%
%ADD22OC8,0.06300*%
%ADD23C,0.06300*%
%ADD24C,0.17000*%
%ADD25C,0.02400*%
%ADD26C,0.01600*%
%ADD27OC8,0.04356*%
%ADD28C,0.02000*%
%ADD29C,0.01200*%
D10*
X0060669Y0144083D03*
X0080669Y0144083D03*
D11*
X0221614Y0123422D02*
X0221614Y0117422D01*
X0231614Y0117422D02*
X0231614Y0123422D01*
X0241614Y0123422D02*
X0241614Y0117422D01*
X0251614Y0117422D02*
X0251614Y0123422D01*
X0251921Y0101761D02*
X0257921Y0101761D01*
X0257921Y0091761D02*
X0251921Y0091761D01*
X0251921Y0081761D02*
X0257921Y0081761D01*
X0257921Y0071761D02*
X0251921Y0071761D01*
X0251921Y0061761D02*
X0257921Y0061761D01*
X0257921Y0051761D02*
X0251921Y0051761D01*
X0231465Y0066406D02*
X0225465Y0066406D01*
X0225465Y0076406D02*
X0231465Y0076406D01*
X0231465Y0086406D02*
X0225465Y0086406D01*
X0189488Y0044446D02*
X0189488Y0038446D01*
X0179488Y0038446D02*
X0179488Y0044446D01*
X0169488Y0044446D02*
X0169488Y0038446D01*
X0159488Y0038446D02*
X0159488Y0044446D01*
X0149488Y0044446D02*
X0149488Y0038446D01*
D12*
X0174606Y0072430D03*
X0174606Y0080304D03*
X0174606Y0088178D03*
X0174606Y0096052D03*
X0174606Y0103926D03*
X0174606Y0111800D03*
X0174606Y0119674D03*
X0174606Y0127548D03*
X0110827Y0127548D03*
X0110827Y0119674D03*
X0110827Y0111800D03*
X0110827Y0103926D03*
X0110827Y0096052D03*
X0110827Y0088178D03*
X0110827Y0080304D03*
X0110827Y0072430D03*
D13*
X0122638Y0064556D03*
X0130512Y0064556D03*
X0138386Y0064556D03*
X0146260Y0064556D03*
X0154134Y0064556D03*
X0162008Y0064556D03*
D14*
X0187953Y0066524D03*
X0187953Y0055501D03*
X0110906Y0053769D03*
X0110906Y0042745D03*
X0092795Y0096288D03*
X0092795Y0107312D03*
X0080591Y0112430D03*
X0094764Y0116367D03*
X0080591Y0123454D03*
X0094764Y0127391D03*
X0097913Y0138650D03*
X0097913Y0149674D03*
D15*
X0193189Y0095816D03*
X0204213Y0095816D03*
X0204055Y0077587D03*
X0193031Y0077587D03*
X0099488Y0048650D03*
X0088465Y0048650D03*
D16*
X0069099Y0109396D03*
X0043499Y0109396D03*
X0043499Y0127196D03*
X0069099Y0127196D03*
D17*
X0095551Y0033709D03*
X0095551Y0028709D03*
X0095551Y0023709D03*
X0095551Y0018709D03*
X0116024Y0018709D03*
X0116024Y0023709D03*
X0116024Y0028709D03*
X0116024Y0033709D03*
D18*
X0083740Y0028847D03*
X0083740Y0013847D03*
D19*
X0125866Y0030540D03*
X0136890Y0030540D03*
D20*
X0217106Y0014398D02*
X0223602Y0014398D01*
X0223602Y0053769D02*
X0217106Y0053769D01*
D21*
X0190827Y0024635D03*
X0173504Y0024635D03*
D22*
X0077921Y0077784D03*
X0060598Y0045894D03*
D23*
X0074598Y0045894D03*
X0091921Y0077784D03*
D24*
X0058937Y0081721D03*
X0035315Y0081721D03*
X0047126Y0063217D03*
D25*
X0091921Y0077784D02*
X0099488Y0077784D01*
X0102244Y0075028D01*
X0104606Y0072666D01*
X0110591Y0072666D01*
X0110827Y0072430D01*
X0110906Y0072351D01*
X0110906Y0053769D01*
X0099488Y0048650D02*
X0099488Y0041564D01*
X0100669Y0042745D01*
X0110906Y0042745D01*
X0099488Y0041564D02*
X0099488Y0040383D01*
X0095551Y0036446D01*
X0095551Y0033709D01*
X0095551Y0028709D02*
X0083878Y0028709D01*
X0083740Y0028847D01*
X0095551Y0023709D02*
X0095551Y0018709D01*
X0088602Y0018709D01*
X0083740Y0013847D01*
X0095551Y0018709D02*
X0116024Y0018709D01*
X0116024Y0023709D02*
X0159075Y0023709D01*
X0167598Y0015186D01*
X0181378Y0015186D01*
X0190827Y0024635D01*
X0201063Y0014398D01*
X0220354Y0014398D01*
X0179488Y0041446D02*
X0179488Y0067548D01*
X0174606Y0072430D01*
X0110827Y0096052D02*
X0110591Y0096288D01*
X0102638Y0096288D01*
X0101063Y0097863D01*
X0101063Y0099438D01*
X0093189Y0107312D01*
X0092795Y0107312D01*
X0077835Y0107312D01*
X0073504Y0102981D01*
X0066417Y0102981D01*
X0062087Y0107312D01*
X0062087Y0134209D01*
X0061559Y0134737D01*
X0060669Y0135626D01*
X0060669Y0144083D01*
X0062087Y0134209D02*
X0069099Y0127196D01*
X0090433Y0112430D02*
X0094370Y0116367D01*
X0094764Y0116367D01*
X0101063Y0110068D01*
X0102244Y0108887D01*
X0102244Y0108493D01*
X0090433Y0112430D02*
X0080591Y0112430D01*
X0092795Y0096288D02*
X0098307Y0090776D01*
X0102244Y0090776D01*
X0102244Y0075028D01*
X0125866Y0030540D02*
X0124035Y0028709D01*
X0116024Y0028709D01*
D26*
X0047094Y0007719D02*
X0046421Y0006994D01*
X0266772Y0006994D01*
X0264830Y0009842D01*
X0264830Y0009842D01*
X0263389Y0014513D01*
X0263389Y0019402D01*
X0264830Y0024073D01*
X0264830Y0024073D01*
X0267584Y0028112D01*
X0267584Y0028112D01*
X0267584Y0028112D01*
X0271406Y0031160D01*
X0271406Y0031160D01*
X0275957Y0032946D01*
X0275957Y0032946D01*
X0280832Y0033312D01*
X0280832Y0033312D01*
X0285598Y0032224D01*
X0285598Y0032224D01*
X0289639Y0029891D01*
X0289894Y0132156D01*
X0289832Y0132088D01*
X0289832Y0132088D01*
X0285598Y0129644D01*
X0280832Y0128556D01*
X0280832Y0128556D01*
X0275957Y0128921D01*
X0275957Y0128921D01*
X0271406Y0130707D01*
X0271406Y0130707D01*
X0267584Y0133755D01*
X0267584Y0133755D01*
X0267584Y0133755D01*
X0264830Y0137795D01*
X0264830Y0137795D01*
X0263389Y0142466D01*
X0263389Y0147355D01*
X0264830Y0152026D01*
X0264830Y0152026D01*
X0267041Y0155268D01*
X0178227Y0155268D01*
X0178227Y0132310D01*
X0179021Y0132310D01*
X0179903Y0131945D01*
X0180578Y0131270D01*
X0180943Y0130388D01*
X0180943Y0124708D01*
X0180578Y0123826D01*
X0180363Y0123611D01*
X0180578Y0123396D01*
X0180859Y0122717D01*
X0183589Y0122717D01*
X0184765Y0122229D01*
X0185666Y0121329D01*
X0193333Y0113661D01*
X0217738Y0113661D01*
X0217036Y0114363D01*
X0216214Y0116348D01*
X0216214Y0124496D01*
X0217036Y0126481D01*
X0218555Y0128000D01*
X0220540Y0128822D01*
X0222688Y0128822D01*
X0224673Y0128000D01*
X0226192Y0126481D01*
X0226959Y0124629D01*
X0227166Y0125265D01*
X0227509Y0125938D01*
X0227953Y0126549D01*
X0228487Y0127083D01*
X0229098Y0127527D01*
X0229772Y0127870D01*
X0230490Y0128104D01*
X0231236Y0128222D01*
X0231414Y0128222D01*
X0231414Y0120622D01*
X0231814Y0120622D01*
X0231814Y0128222D01*
X0231992Y0128222D01*
X0232738Y0128104D01*
X0233457Y0127870D01*
X0234130Y0127527D01*
X0234741Y0127083D01*
X0235275Y0126549D01*
X0235719Y0125938D01*
X0236062Y0125265D01*
X0236269Y0124629D01*
X0237036Y0126481D01*
X0238555Y0128000D01*
X0240540Y0128822D01*
X0242688Y0128822D01*
X0244673Y0128000D01*
X0246192Y0126481D01*
X0246614Y0125462D01*
X0247036Y0126481D01*
X0248555Y0128000D01*
X0250540Y0128822D01*
X0252688Y0128822D01*
X0254673Y0128000D01*
X0256192Y0126481D01*
X0257014Y0124496D01*
X0257014Y0116348D01*
X0256192Y0114363D01*
X0254673Y0112844D01*
X0252688Y0112022D01*
X0250850Y0112022D01*
X0243146Y0104318D01*
X0242246Y0103418D01*
X0241070Y0102931D01*
X0209088Y0102931D01*
X0208791Y0103054D01*
X0208791Y0101719D01*
X0209397Y0101112D01*
X0209762Y0100230D01*
X0209762Y0091401D01*
X0209397Y0090519D01*
X0208722Y0089844D01*
X0207840Y0089479D01*
X0207413Y0089479D01*
X0207413Y0083924D01*
X0207682Y0083924D01*
X0208564Y0083559D01*
X0209239Y0082884D01*
X0209605Y0082002D01*
X0209605Y0073173D01*
X0209239Y0072291D01*
X0208564Y0071616D01*
X0207806Y0071302D01*
X0207806Y0068460D01*
X0209184Y0067082D01*
X0209184Y0063290D01*
X0208375Y0062480D01*
X0219670Y0062480D01*
X0220802Y0063553D01*
X0220065Y0065332D01*
X0220065Y0067480D01*
X0220887Y0069465D01*
X0222406Y0070984D01*
X0223425Y0071406D01*
X0222406Y0071828D01*
X0220887Y0073347D01*
X0220065Y0075332D01*
X0220065Y0077480D01*
X0220887Y0079465D01*
X0222406Y0080984D01*
X0223425Y0081406D01*
X0222406Y0081828D01*
X0220887Y0083347D01*
X0220065Y0085332D01*
X0220065Y0087328D01*
X0216076Y0091317D01*
X0214127Y0091317D01*
X0211446Y0093998D01*
X0211446Y0097791D01*
X0214127Y0100472D01*
X0217920Y0100472D01*
X0220602Y0097791D01*
X0220602Y0095842D01*
X0224637Y0091806D01*
X0232539Y0091806D01*
X0234523Y0090984D01*
X0236042Y0089465D01*
X0236865Y0087480D01*
X0236865Y0085332D01*
X0236042Y0083347D01*
X0234523Y0081828D01*
X0233504Y0081406D01*
X0234523Y0080984D01*
X0236042Y0079465D01*
X0236865Y0077480D01*
X0236865Y0075332D01*
X0236042Y0073347D01*
X0234523Y0071828D01*
X0233504Y0071406D01*
X0234523Y0070984D01*
X0236042Y0069465D01*
X0236865Y0067480D01*
X0236865Y0065332D01*
X0236042Y0063347D01*
X0234523Y0061828D01*
X0232539Y0061006D01*
X0227418Y0061006D01*
X0225432Y0059124D01*
X0226802Y0058557D01*
X0228391Y0056968D01*
X0229250Y0054892D01*
X0229250Y0052645D01*
X0228391Y0050569D01*
X0226802Y0048980D01*
X0224726Y0048120D01*
X0215983Y0048120D01*
X0213907Y0048980D01*
X0212318Y0050569D01*
X0211458Y0052645D01*
X0211458Y0054892D01*
X0211951Y0056080D01*
X0200820Y0056080D01*
X0199644Y0056567D01*
X0198744Y0057468D01*
X0195594Y0060617D01*
X0195107Y0061793D01*
X0195107Y0070160D01*
X0194016Y0071250D01*
X0193707Y0071250D01*
X0193924Y0071034D01*
X0194290Y0070151D01*
X0194290Y0062897D01*
X0193924Y0062015D01*
X0193249Y0061340D01*
X0192367Y0060975D01*
X0183538Y0060975D01*
X0182656Y0061340D01*
X0181981Y0062015D01*
X0181616Y0062897D01*
X0181616Y0070151D01*
X0181981Y0071034D01*
X0182656Y0071709D01*
X0183538Y0072074D01*
X0184953Y0072074D01*
X0184953Y0076266D01*
X0184072Y0077146D01*
X0180812Y0077146D01*
X0180578Y0076582D01*
X0179938Y0075943D01*
X0179984Y0075897D01*
X0180221Y0075487D01*
X0180343Y0075029D01*
X0180343Y0072811D01*
X0174987Y0072811D01*
X0174987Y0072049D01*
X0174987Y0068268D01*
X0178780Y0068268D01*
X0179238Y0068390D01*
X0179649Y0068627D01*
X0179984Y0068962D01*
X0180221Y0069373D01*
X0180343Y0069831D01*
X0180343Y0072049D01*
X0174987Y0072049D01*
X0174225Y0072049D01*
X0174225Y0068268D01*
X0170432Y0068268D01*
X0170205Y0068329D01*
X0170205Y0059077D01*
X0169748Y0057975D01*
X0168904Y0057131D01*
X0166148Y0054375D01*
X0165046Y0053918D01*
X0149679Y0053918D01*
X0148576Y0054375D01*
X0147732Y0055219D01*
X0144732Y0058219D01*
X0143420Y0058219D01*
X0142538Y0058584D01*
X0142323Y0058800D01*
X0142108Y0058584D01*
X0141225Y0058219D01*
X0135546Y0058219D01*
X0134664Y0058584D01*
X0134449Y0058800D01*
X0134234Y0058584D01*
X0133351Y0058219D01*
X0131958Y0058219D01*
X0144255Y0045922D01*
X0144910Y0047505D01*
X0146429Y0049024D01*
X0148414Y0049846D01*
X0150562Y0049846D01*
X0152547Y0049024D01*
X0154066Y0047505D01*
X0154488Y0046485D01*
X0154910Y0047505D01*
X0156429Y0049024D01*
X0158414Y0049846D01*
X0160562Y0049846D01*
X0162547Y0049024D01*
X0164066Y0047505D01*
X0164488Y0046485D01*
X0164910Y0047505D01*
X0166429Y0049024D01*
X0168414Y0049846D01*
X0170562Y0049846D01*
X0172547Y0049024D01*
X0174066Y0047505D01*
X0174833Y0045652D01*
X0175040Y0046288D01*
X0175383Y0046961D01*
X0175827Y0047573D01*
X0176361Y0048107D01*
X0176972Y0048551D01*
X0177646Y0048894D01*
X0178364Y0049127D01*
X0179110Y0049246D01*
X0179288Y0049246D01*
X0179288Y0041646D01*
X0179688Y0041646D01*
X0179688Y0049246D01*
X0179866Y0049246D01*
X0180612Y0049127D01*
X0181331Y0048894D01*
X0182004Y0048551D01*
X0182615Y0048107D01*
X0183149Y0047573D01*
X0183594Y0046961D01*
X0183937Y0046288D01*
X0184143Y0045652D01*
X0184910Y0047505D01*
X0186429Y0049024D01*
X0188414Y0049846D01*
X0190562Y0049846D01*
X0192547Y0049024D01*
X0194066Y0047505D01*
X0194888Y0045520D01*
X0194888Y0037372D01*
X0194066Y0035387D01*
X0192547Y0033868D01*
X0190562Y0033046D01*
X0188414Y0033046D01*
X0186429Y0033868D01*
X0184910Y0035387D01*
X0184143Y0037239D01*
X0183937Y0036603D01*
X0183594Y0035930D01*
X0183149Y0035319D01*
X0182615Y0034784D01*
X0182004Y0034340D01*
X0181331Y0033997D01*
X0180612Y0033764D01*
X0179866Y0033646D01*
X0179688Y0033646D01*
X0179688Y0041246D01*
X0179288Y0041246D01*
X0179288Y0033646D01*
X0179110Y0033646D01*
X0178364Y0033764D01*
X0177646Y0033997D01*
X0176972Y0034340D01*
X0176361Y0034784D01*
X0175827Y0035319D01*
X0175383Y0035930D01*
X0175040Y0036603D01*
X0174833Y0037239D01*
X0174066Y0035387D01*
X0172547Y0033868D01*
X0170562Y0033046D01*
X0168414Y0033046D01*
X0166429Y0033868D01*
X0164910Y0035387D01*
X0164488Y0036406D01*
X0164066Y0035387D01*
X0162547Y0033868D01*
X0161915Y0033606D01*
X0161424Y0033115D01*
X0158668Y0030359D01*
X0157565Y0029902D01*
X0143380Y0029902D01*
X0142277Y0030359D01*
X0141433Y0031203D01*
X0141321Y0031315D01*
X0137665Y0031315D01*
X0137665Y0029765D01*
X0141839Y0029765D01*
X0141839Y0027309D01*
X0159791Y0027309D01*
X0161114Y0026761D01*
X0162127Y0025749D01*
X0162127Y0025749D01*
X0166980Y0020896D01*
X0166980Y0023835D01*
X0172704Y0023835D01*
X0172704Y0025435D01*
X0172704Y0031159D01*
X0168543Y0031159D01*
X0168085Y0031036D01*
X0167674Y0030799D01*
X0167339Y0030464D01*
X0167102Y0030054D01*
X0166980Y0029596D01*
X0166980Y0025435D01*
X0172704Y0025435D01*
X0174304Y0025435D01*
X0174304Y0031159D01*
X0178465Y0031159D01*
X0178923Y0031036D01*
X0179334Y0030799D01*
X0179669Y0030464D01*
X0179906Y0030054D01*
X0180028Y0029596D01*
X0180028Y0025435D01*
X0174304Y0025435D01*
X0174304Y0023835D01*
X0180028Y0023835D01*
X0180028Y0019673D01*
X0179906Y0019215D01*
X0179669Y0018805D01*
X0179649Y0018786D01*
X0179887Y0018786D01*
X0183702Y0022601D01*
X0183702Y0029836D01*
X0184068Y0030719D01*
X0184743Y0031394D01*
X0185625Y0031759D01*
X0196029Y0031759D01*
X0196911Y0031394D01*
X0197586Y0030719D01*
X0197951Y0029836D01*
X0197951Y0022601D01*
X0202554Y0017998D01*
X0212719Y0017998D01*
X0213907Y0019187D01*
X0215983Y0020046D01*
X0224726Y0020046D01*
X0226802Y0019187D01*
X0228391Y0017598D01*
X0229250Y0015522D01*
X0229250Y0013275D01*
X0228391Y0011199D01*
X0226802Y0009610D01*
X0224726Y0008750D01*
X0215983Y0008750D01*
X0213907Y0009610D01*
X0212719Y0010798D01*
X0200347Y0010798D01*
X0199024Y0011346D01*
X0192860Y0017510D01*
X0188794Y0017510D01*
X0183417Y0012134D01*
X0182094Y0011586D01*
X0166882Y0011586D01*
X0165559Y0012134D01*
X0164546Y0013147D01*
X0164546Y0013147D01*
X0157584Y0020109D01*
X0122754Y0020109D01*
X0122754Y0017051D01*
X0122389Y0016169D01*
X0121714Y0015494D01*
X0120832Y0015128D01*
X0116785Y0015128D01*
X0116740Y0015109D01*
X0090094Y0015109D01*
X0088940Y0013956D01*
X0088940Y0011693D01*
X0085894Y0008647D01*
X0081586Y0008647D01*
X0078540Y0011693D01*
X0078540Y0016001D01*
X0081586Y0019047D01*
X0083849Y0019047D01*
X0086563Y0021761D01*
X0087886Y0022309D01*
X0088820Y0022309D01*
X0088820Y0025109D01*
X0087356Y0025109D01*
X0085894Y0023647D01*
X0081586Y0023647D01*
X0078540Y0026693D01*
X0078540Y0031001D01*
X0081586Y0034047D01*
X0085894Y0034047D01*
X0087632Y0032309D01*
X0088820Y0032309D01*
X0088820Y0035368D01*
X0089186Y0036250D01*
X0089861Y0036925D01*
X0090743Y0037291D01*
X0092005Y0037291D01*
X0092499Y0038485D01*
X0095888Y0041874D01*
X0095888Y0042313D01*
X0095861Y0042313D01*
X0094979Y0042679D01*
X0094304Y0043354D01*
X0093939Y0044236D01*
X0093939Y0053065D01*
X0094304Y0053947D01*
X0094979Y0054622D01*
X0095861Y0054987D01*
X0103115Y0054987D01*
X0103997Y0054622D01*
X0104569Y0054051D01*
X0104569Y0057395D01*
X0104934Y0058278D01*
X0105609Y0058953D01*
X0106491Y0059318D01*
X0107306Y0059318D01*
X0107306Y0061918D01*
X0106328Y0062896D01*
X0106328Y0066688D01*
X0107306Y0067666D01*
X0107306Y0067668D01*
X0106412Y0067668D01*
X0105530Y0068033D01*
X0104855Y0068708D01*
X0104707Y0069066D01*
X0103890Y0069066D01*
X0102567Y0069614D01*
X0099192Y0072989D01*
X0099192Y0072989D01*
X0097997Y0074184D01*
X0096170Y0074184D01*
X0095065Y0073079D01*
X0093025Y0072234D01*
X0090817Y0072234D01*
X0088777Y0073079D01*
X0087216Y0074640D01*
X0086371Y0076680D01*
X0086371Y0078888D01*
X0087216Y0080928D01*
X0088777Y0082489D01*
X0090817Y0083334D01*
X0093025Y0083334D01*
X0095065Y0082489D01*
X0096170Y0081384D01*
X0098644Y0081384D01*
X0098644Y0087176D01*
X0097591Y0087176D01*
X0096268Y0087724D01*
X0093254Y0090739D01*
X0088381Y0090739D01*
X0087499Y0091104D01*
X0086824Y0091779D01*
X0086458Y0092661D01*
X0086458Y0099915D01*
X0086824Y0100797D01*
X0087499Y0101472D01*
X0088290Y0101800D01*
X0087499Y0102128D01*
X0086824Y0102803D01*
X0086458Y0103685D01*
X0086458Y0103712D01*
X0079326Y0103712D01*
X0076556Y0100942D01*
X0075543Y0099929D01*
X0074220Y0099381D01*
X0065701Y0099381D01*
X0064378Y0099929D01*
X0060047Y0104260D01*
X0059035Y0105273D01*
X0058487Y0106596D01*
X0058487Y0132717D01*
X0057617Y0133587D01*
X0057069Y0134910D01*
X0057069Y0140612D01*
X0055669Y0142012D01*
X0055669Y0146155D01*
X0058598Y0149083D01*
X0062740Y0149083D01*
X0065669Y0146155D01*
X0065669Y0142012D01*
X0064269Y0140612D01*
X0064269Y0137117D01*
X0065139Y0136248D01*
X0068090Y0133296D01*
X0070313Y0133296D01*
X0072555Y0132367D01*
X0074271Y0130651D01*
X0075160Y0128504D01*
X0075294Y0128638D01*
X0076176Y0129003D01*
X0077469Y0129003D01*
X0077469Y0140212D01*
X0075669Y0142012D01*
X0075669Y0146155D01*
X0078598Y0149083D01*
X0082740Y0149083D01*
X0085669Y0146155D01*
X0085669Y0142012D01*
X0083869Y0140212D01*
X0083869Y0139112D01*
X0084994Y0140236D01*
X0088786Y0140236D01*
X0091468Y0137555D01*
X0091468Y0135606D01*
X0091564Y0135510D01*
X0091564Y0136137D01*
X0091576Y0136168D01*
X0091576Y0142277D01*
X0091942Y0143159D01*
X0092617Y0143835D01*
X0093408Y0144162D01*
X0092617Y0144490D01*
X0091942Y0145165D01*
X0091576Y0146047D01*
X0091576Y0153301D01*
X0091942Y0154183D01*
X0092617Y0154858D01*
X0093499Y0155224D01*
X0102328Y0155224D01*
X0103210Y0154858D01*
X0103775Y0154293D01*
X0103891Y0154409D01*
X0107684Y0154409D01*
X0108427Y0153666D01*
X0108427Y0155268D01*
X0046055Y0155268D01*
X0047094Y0154149D01*
X0047094Y0154149D01*
X0049215Y0149744D01*
X0049215Y0149744D01*
X0049943Y0144910D01*
X0049215Y0140076D01*
X0049215Y0140076D01*
X0047094Y0135672D01*
X0047094Y0135672D01*
X0044840Y0133243D01*
X0046955Y0132367D01*
X0048671Y0130651D01*
X0049599Y0128409D01*
X0049599Y0125983D01*
X0048671Y0123741D01*
X0046955Y0122025D01*
X0044713Y0121096D01*
X0042286Y0121096D01*
X0040044Y0122025D01*
X0038328Y0123741D01*
X0037399Y0125983D01*
X0037399Y0128409D01*
X0037741Y0129234D01*
X0034769Y0128556D01*
X0034769Y0128556D01*
X0029894Y0128921D01*
X0029894Y0128921D01*
X0025343Y0130707D01*
X0025343Y0130707D01*
X0023903Y0131856D01*
X0023648Y0029809D01*
X0025343Y0031160D01*
X0025343Y0031160D01*
X0029894Y0032946D01*
X0029894Y0032946D01*
X0034769Y0033312D01*
X0034769Y0033312D01*
X0039535Y0032224D01*
X0039535Y0032224D01*
X0043769Y0029780D01*
X0043769Y0029780D01*
X0047094Y0026196D01*
X0047094Y0026196D01*
X0049215Y0021791D01*
X0049215Y0021791D01*
X0049943Y0016957D01*
X0049215Y0012123D01*
X0049215Y0012123D01*
X0047094Y0007719D01*
X0047094Y0007719D01*
X0047512Y0008588D02*
X0265685Y0008588D01*
X0264724Y0010186D02*
X0227378Y0010186D01*
X0228633Y0011785D02*
X0264231Y0011785D01*
X0263738Y0013383D02*
X0229250Y0013383D01*
X0229250Y0014982D02*
X0263389Y0014982D01*
X0263389Y0016580D02*
X0228812Y0016580D01*
X0227809Y0018179D02*
X0263389Y0018179D01*
X0263505Y0019777D02*
X0225376Y0019777D01*
X0215333Y0019777D02*
X0200775Y0019777D01*
X0202374Y0018179D02*
X0212899Y0018179D01*
X0213331Y0010186D02*
X0087433Y0010186D01*
X0088940Y0011785D02*
X0166402Y0011785D01*
X0164310Y0013383D02*
X0088940Y0013383D01*
X0089966Y0014982D02*
X0162711Y0014982D01*
X0161113Y0016580D02*
X0122559Y0016580D01*
X0122754Y0018179D02*
X0159514Y0018179D01*
X0157916Y0019777D02*
X0122754Y0019777D01*
X0109293Y0025368D02*
X0109641Y0026209D01*
X0109293Y0027051D01*
X0109293Y0030368D01*
X0109658Y0031250D01*
X0110098Y0031690D01*
X0110016Y0031834D01*
X0109893Y0032291D01*
X0109893Y0033709D01*
X0116023Y0033709D01*
X0116023Y0033709D01*
X0109893Y0033709D01*
X0109893Y0035128D01*
X0110016Y0035585D01*
X0110253Y0035996D01*
X0110588Y0036331D01*
X0110998Y0036568D01*
X0111456Y0036691D01*
X0116024Y0036691D01*
X0116024Y0033710D01*
X0116024Y0033710D01*
X0116024Y0036691D01*
X0120591Y0036691D01*
X0121049Y0036568D01*
X0121460Y0036331D01*
X0121580Y0036210D01*
X0122239Y0036483D01*
X0129493Y0036483D01*
X0130375Y0036118D01*
X0131050Y0035443D01*
X0131416Y0034561D01*
X0131416Y0027309D01*
X0131940Y0027309D01*
X0131940Y0029765D01*
X0136115Y0029765D01*
X0136115Y0031315D01*
X0136115Y0035883D01*
X0133503Y0035883D01*
X0133045Y0035761D01*
X0132635Y0035524D01*
X0132300Y0035189D01*
X0132063Y0034778D01*
X0131940Y0034320D01*
X0131940Y0031315D01*
X0136115Y0031315D01*
X0137665Y0031315D01*
X0137665Y0034972D01*
X0117243Y0055394D01*
X0117243Y0050141D01*
X0116877Y0049259D01*
X0116202Y0048584D01*
X0115411Y0048257D01*
X0116202Y0047929D01*
X0116877Y0047254D01*
X0117243Y0046372D01*
X0117243Y0039118D01*
X0116877Y0038236D01*
X0116202Y0037561D01*
X0115320Y0037195D01*
X0106491Y0037195D01*
X0105609Y0037561D01*
X0104934Y0038236D01*
X0104569Y0039118D01*
X0104569Y0039145D01*
X0102872Y0039145D01*
X0102540Y0038343D01*
X0101527Y0037331D01*
X0101157Y0036960D01*
X0101241Y0036925D01*
X0101916Y0036250D01*
X0102282Y0035368D01*
X0102282Y0032051D01*
X0101933Y0031209D01*
X0102282Y0030368D01*
X0102282Y0027051D01*
X0101933Y0026209D01*
X0102282Y0025368D01*
X0102282Y0022309D01*
X0109293Y0022309D01*
X0109293Y0025368D01*
X0109293Y0024573D02*
X0102282Y0024573D01*
X0102282Y0022974D02*
X0109293Y0022974D01*
X0109626Y0026171D02*
X0101949Y0026171D01*
X0102282Y0027770D02*
X0109293Y0027770D01*
X0109293Y0029368D02*
X0102282Y0029368D01*
X0102034Y0030967D02*
X0109541Y0030967D01*
X0109893Y0032565D02*
X0102282Y0032565D01*
X0102282Y0034164D02*
X0109893Y0034164D01*
X0110118Y0035762D02*
X0102118Y0035762D01*
X0101558Y0037361D02*
X0106091Y0037361D01*
X0104634Y0038959D02*
X0102795Y0038959D01*
X0095888Y0042156D02*
X0078709Y0042156D01*
X0079303Y0042751D02*
X0080148Y0044791D01*
X0080148Y0046998D01*
X0079303Y0049038D01*
X0077742Y0050600D01*
X0075702Y0051444D01*
X0073494Y0051444D01*
X0071455Y0050600D01*
X0069893Y0049038D01*
X0069048Y0046998D01*
X0069048Y0044791D01*
X0069893Y0042751D01*
X0071455Y0041189D01*
X0073494Y0040344D01*
X0075702Y0040344D01*
X0077742Y0041189D01*
X0079303Y0042751D01*
X0079719Y0043755D02*
X0083790Y0043755D01*
X0083875Y0043608D02*
X0084210Y0043273D01*
X0084620Y0043036D01*
X0085078Y0042913D01*
X0087690Y0042913D01*
X0087690Y0047876D01*
X0083515Y0047876D01*
X0083515Y0044476D01*
X0083638Y0044019D01*
X0083875Y0043608D01*
X0083515Y0045354D02*
X0080148Y0045354D01*
X0080148Y0046952D02*
X0083515Y0046952D01*
X0083515Y0049425D02*
X0087690Y0049425D01*
X0087690Y0047876D01*
X0089239Y0047876D01*
X0089239Y0049425D01*
X0087690Y0049425D01*
X0087690Y0054387D01*
X0085078Y0054387D01*
X0084620Y0054265D01*
X0084210Y0054028D01*
X0083875Y0053693D01*
X0083638Y0053282D01*
X0083515Y0052824D01*
X0083515Y0049425D01*
X0083515Y0050149D02*
X0078193Y0050149D01*
X0079506Y0048551D02*
X0087690Y0048551D01*
X0089239Y0048551D02*
X0093939Y0048551D01*
X0093414Y0047876D02*
X0089239Y0047876D01*
X0089239Y0042913D01*
X0091851Y0042913D01*
X0092309Y0043036D01*
X0092719Y0043273D01*
X0093055Y0043608D01*
X0093291Y0044019D01*
X0093414Y0044476D01*
X0093414Y0047876D01*
X0093414Y0046952D02*
X0093939Y0046952D01*
X0093939Y0045354D02*
X0093414Y0045354D01*
X0093139Y0043755D02*
X0094138Y0043755D01*
X0089239Y0043755D02*
X0087690Y0043755D01*
X0087690Y0045354D02*
X0089239Y0045354D01*
X0089239Y0046952D02*
X0087690Y0046952D01*
X0089239Y0049425D02*
X0093414Y0049425D01*
X0093414Y0052824D01*
X0093291Y0053282D01*
X0093055Y0053693D01*
X0092719Y0054028D01*
X0092309Y0054265D01*
X0091851Y0054387D01*
X0089239Y0054387D01*
X0089239Y0049425D01*
X0089239Y0050149D02*
X0087690Y0050149D01*
X0087690Y0051748D02*
X0089239Y0051748D01*
X0089239Y0053346D02*
X0087690Y0053346D01*
X0083675Y0053346D02*
X0051828Y0053346D01*
X0051333Y0053060D02*
X0048561Y0052317D01*
X0045691Y0052317D01*
X0042919Y0053060D01*
X0040433Y0054495D01*
X0038404Y0056525D01*
X0036969Y0059010D01*
X0036226Y0061782D01*
X0036226Y0064652D01*
X0036969Y0067425D01*
X0038404Y0069910D01*
X0040433Y0071939D01*
X0042919Y0073374D01*
X0045691Y0074117D01*
X0048561Y0074117D01*
X0051333Y0073374D01*
X0053819Y0071939D01*
X0055848Y0069910D01*
X0057283Y0067425D01*
X0058026Y0064652D01*
X0058026Y0061782D01*
X0057283Y0059010D01*
X0055848Y0056525D01*
X0053819Y0054495D01*
X0051333Y0053060D01*
X0054268Y0054945D02*
X0095758Y0054945D01*
X0094055Y0053346D02*
X0093255Y0053346D01*
X0093414Y0051748D02*
X0093939Y0051748D01*
X0093939Y0050149D02*
X0093414Y0050149D01*
X0083515Y0051748D02*
X0023703Y0051748D01*
X0023707Y0053346D02*
X0042423Y0053346D01*
X0039984Y0054945D02*
X0023711Y0054945D01*
X0023715Y0056543D02*
X0038393Y0056543D01*
X0037470Y0058142D02*
X0023719Y0058142D01*
X0023723Y0059740D02*
X0036773Y0059740D01*
X0036345Y0061339D02*
X0023727Y0061339D01*
X0023731Y0062937D02*
X0036226Y0062937D01*
X0036226Y0064536D02*
X0023735Y0064536D01*
X0023739Y0066134D02*
X0036623Y0066134D01*
X0037147Y0067733D02*
X0023743Y0067733D01*
X0023747Y0069331D02*
X0038070Y0069331D01*
X0039423Y0070930D02*
X0023751Y0070930D01*
X0023755Y0072528D02*
X0030665Y0072528D01*
X0030325Y0072692D02*
X0031367Y0072190D01*
X0032459Y0071808D01*
X0033587Y0071551D01*
X0034515Y0071446D01*
X0034515Y0080921D01*
X0036115Y0080921D01*
X0036115Y0071446D01*
X0037043Y0071551D01*
X0038171Y0071808D01*
X0039263Y0072190D01*
X0040305Y0072692D01*
X0041285Y0073308D01*
X0042189Y0074029D01*
X0043007Y0074847D01*
X0043728Y0075752D01*
X0044344Y0076731D01*
X0044846Y0077773D01*
X0045228Y0078865D01*
X0045485Y0079993D01*
X0045590Y0080921D01*
X0036115Y0080921D01*
X0036115Y0082521D01*
X0045590Y0082521D01*
X0045485Y0083449D01*
X0045228Y0084577D01*
X0044846Y0085669D01*
X0044344Y0086711D01*
X0043728Y0087691D01*
X0043007Y0088595D01*
X0042189Y0089413D01*
X0041285Y0090135D01*
X0040305Y0090750D01*
X0039263Y0091252D01*
X0038171Y0091634D01*
X0037043Y0091892D01*
X0036115Y0091996D01*
X0036115Y0082521D01*
X0034515Y0082521D01*
X0034515Y0080921D01*
X0025040Y0080921D01*
X0025144Y0079993D01*
X0025402Y0078865D01*
X0025784Y0077773D01*
X0026286Y0076731D01*
X0026901Y0075752D01*
X0027623Y0074847D01*
X0028441Y0074029D01*
X0029345Y0073308D01*
X0030325Y0072692D01*
X0028343Y0074127D02*
X0023759Y0074127D01*
X0023763Y0075725D02*
X0026922Y0075725D01*
X0026001Y0077324D02*
X0023767Y0077324D01*
X0023771Y0078922D02*
X0025389Y0078922D01*
X0025085Y0080521D02*
X0023775Y0080521D01*
X0023779Y0082119D02*
X0034515Y0082119D01*
X0034515Y0082521D02*
X0025040Y0082521D01*
X0025144Y0083449D01*
X0025402Y0084577D01*
X0025784Y0085669D01*
X0026286Y0086711D01*
X0026901Y0087691D01*
X0027623Y0088595D01*
X0028441Y0089413D01*
X0029345Y0090135D01*
X0030325Y0090750D01*
X0031367Y0091252D01*
X0032459Y0091634D01*
X0033587Y0091892D01*
X0034515Y0091996D01*
X0034515Y0082521D01*
X0034515Y0083718D02*
X0036115Y0083718D01*
X0036115Y0085316D02*
X0034515Y0085316D01*
X0034515Y0086915D02*
X0036115Y0086915D01*
X0036115Y0088513D02*
X0034515Y0088513D01*
X0034515Y0090112D02*
X0036115Y0090112D01*
X0036115Y0091710D02*
X0034515Y0091710D01*
X0032792Y0091710D02*
X0023803Y0091710D01*
X0023799Y0090112D02*
X0029316Y0090112D01*
X0027557Y0088513D02*
X0023795Y0088513D01*
X0023791Y0086915D02*
X0026414Y0086915D01*
X0025661Y0085316D02*
X0023787Y0085316D01*
X0023783Y0083718D02*
X0025206Y0083718D01*
X0034515Y0080521D02*
X0036115Y0080521D01*
X0036115Y0082119D02*
X0048037Y0082119D01*
X0048037Y0083156D02*
X0048037Y0080286D01*
X0048780Y0077514D01*
X0050215Y0075028D01*
X0052244Y0072999D01*
X0054730Y0071564D01*
X0057502Y0070821D01*
X0060372Y0070821D01*
X0063144Y0071564D01*
X0065630Y0072999D01*
X0067659Y0075028D01*
X0069094Y0077514D01*
X0069837Y0080286D01*
X0069837Y0083156D01*
X0069094Y0085928D01*
X0067659Y0088414D01*
X0065630Y0090443D01*
X0063144Y0091878D01*
X0060372Y0092621D01*
X0057502Y0092621D01*
X0054730Y0091878D01*
X0052244Y0090443D01*
X0050215Y0088414D01*
X0048780Y0085928D01*
X0048037Y0083156D01*
X0048187Y0083718D02*
X0045424Y0083718D01*
X0044969Y0085316D02*
X0048616Y0085316D01*
X0049349Y0086915D02*
X0044216Y0086915D01*
X0043073Y0088513D02*
X0050314Y0088513D01*
X0051913Y0090112D02*
X0041313Y0090112D01*
X0037838Y0091710D02*
X0054439Y0091710D01*
X0063435Y0091710D02*
X0086892Y0091710D01*
X0086458Y0093309D02*
X0023807Y0093309D01*
X0023811Y0094907D02*
X0086458Y0094907D01*
X0086458Y0096506D02*
X0023815Y0096506D01*
X0023819Y0098104D02*
X0086458Y0098104D01*
X0086458Y0099703D02*
X0074997Y0099703D01*
X0076915Y0101301D02*
X0087328Y0101301D01*
X0086783Y0102900D02*
X0078514Y0102900D01*
X0069299Y0109596D02*
X0068899Y0109596D01*
X0068899Y0114896D01*
X0068666Y0114896D01*
X0067811Y0114761D01*
X0066988Y0114493D01*
X0066217Y0114100D01*
X0065687Y0113715D01*
X0065687Y0122007D01*
X0067886Y0121096D01*
X0070313Y0121096D01*
X0072555Y0122025D01*
X0074254Y0123724D01*
X0074254Y0119827D01*
X0074619Y0118944D01*
X0075294Y0118269D01*
X0076085Y0117942D01*
X0075294Y0117614D01*
X0074619Y0116939D01*
X0074254Y0116057D01*
X0074254Y0111331D01*
X0074196Y0111507D01*
X0073803Y0112279D01*
X0073294Y0112979D01*
X0072682Y0113591D01*
X0071982Y0114100D01*
X0071210Y0114493D01*
X0070387Y0114761D01*
X0069532Y0114896D01*
X0069299Y0114896D01*
X0069299Y0109596D01*
X0069299Y0110892D02*
X0068899Y0110892D01*
X0068899Y0112491D02*
X0069299Y0112491D01*
X0069299Y0114089D02*
X0068899Y0114089D01*
X0066202Y0114089D02*
X0065687Y0114089D01*
X0065687Y0115688D02*
X0074254Y0115688D01*
X0074254Y0114089D02*
X0071996Y0114089D01*
X0073649Y0112491D02*
X0074254Y0112491D01*
X0074966Y0117287D02*
X0065687Y0117287D01*
X0065687Y0118885D02*
X0074678Y0118885D01*
X0074254Y0120484D02*
X0065687Y0120484D01*
X0072612Y0122082D02*
X0074254Y0122082D01*
X0074210Y0123681D02*
X0074254Y0123681D01*
X0080591Y0123454D02*
X0080669Y0123532D01*
X0080669Y0144083D01*
X0085669Y0144461D02*
X0092686Y0144461D01*
X0091819Y0142863D02*
X0085669Y0142863D01*
X0084921Y0141264D02*
X0091576Y0141264D01*
X0091576Y0139666D02*
X0089357Y0139666D01*
X0090955Y0138067D02*
X0091576Y0138067D01*
X0091576Y0136469D02*
X0091468Y0136469D01*
X0094764Y0135501D02*
X0097913Y0138650D01*
X0094764Y0135501D02*
X0094764Y0127391D01*
X0094764Y0127784D01*
X0086890Y0135658D01*
X0084423Y0139666D02*
X0083869Y0139666D01*
X0077469Y0139666D02*
X0064269Y0139666D01*
X0064269Y0138067D02*
X0077469Y0138067D01*
X0077469Y0136469D02*
X0064918Y0136469D01*
X0066516Y0134870D02*
X0077469Y0134870D01*
X0077469Y0133272D02*
X0070372Y0133272D01*
X0073249Y0131673D02*
X0077469Y0131673D01*
X0077469Y0130075D02*
X0074509Y0130075D01*
X0080591Y0123454D02*
X0086890Y0123454D01*
X0088465Y0121879D01*
X0099882Y0121879D01*
X0105394Y0127391D01*
X0110669Y0127391D01*
X0110827Y0127548D01*
X0117164Y0126878D02*
X0161839Y0126878D01*
X0161839Y0128476D02*
X0117164Y0128476D01*
X0117164Y0129656D02*
X0162602Y0129656D01*
X0161839Y0128893D01*
X0161839Y0125101D01*
X0164521Y0122419D01*
X0168269Y0122419D01*
X0168269Y0116834D01*
X0168635Y0115952D01*
X0168850Y0115737D01*
X0168635Y0115522D01*
X0168269Y0114640D01*
X0168269Y0108960D01*
X0168635Y0108078D01*
X0168850Y0107863D01*
X0168635Y0107648D01*
X0168269Y0106766D01*
X0168269Y0101086D01*
X0168635Y0100204D01*
X0168850Y0099989D01*
X0168635Y0099774D01*
X0168269Y0098892D01*
X0168269Y0093813D01*
X0167408Y0094170D01*
X0164773Y0094170D01*
X0163195Y0095748D01*
X0159403Y0095748D01*
X0156721Y0093066D01*
X0156721Y0089624D01*
X0154534Y0091811D01*
X0150742Y0091811D01*
X0149164Y0090233D01*
X0146923Y0090233D01*
X0145820Y0089776D01*
X0144617Y0088573D01*
X0144617Y0091885D01*
X0141936Y0094567D01*
X0138143Y0094567D01*
X0135461Y0091885D01*
X0135461Y0089654D01*
X0129206Y0083398D01*
X0129197Y0083421D01*
X0122898Y0089720D01*
X0122054Y0090564D01*
X0120951Y0091020D01*
X0117163Y0091020D01*
X0116798Y0091900D01*
X0116583Y0092115D01*
X0116798Y0092330D01*
X0117164Y0093212D01*
X0117164Y0098892D01*
X0116798Y0099774D01*
X0116583Y0099989D01*
X0116798Y0100204D01*
X0117164Y0101086D01*
X0117164Y0103504D01*
X0118655Y0102013D01*
X0119758Y0101556D01*
X0149557Y0101556D01*
X0151135Y0099978D01*
X0154928Y0099978D01*
X0157609Y0102660D01*
X0157609Y0106452D01*
X0154928Y0109134D01*
X0151135Y0109134D01*
X0149557Y0107556D01*
X0121597Y0107556D01*
X0121579Y0107574D01*
X0123751Y0109746D01*
X0123751Y0113539D01*
X0121069Y0116220D01*
X0117277Y0116220D01*
X0116688Y0115632D01*
X0116583Y0115737D01*
X0116798Y0115952D01*
X0117164Y0116834D01*
X0117164Y0122514D01*
X0116798Y0123396D01*
X0116583Y0123611D01*
X0116798Y0123826D01*
X0117164Y0124708D01*
X0117164Y0129656D01*
X0117164Y0125279D02*
X0161839Y0125279D01*
X0163259Y0123681D02*
X0116653Y0123681D01*
X0117164Y0122082D02*
X0168269Y0122082D01*
X0168269Y0120484D02*
X0117164Y0120484D01*
X0117164Y0118885D02*
X0168269Y0118885D01*
X0168269Y0117287D02*
X0117164Y0117287D01*
X0116745Y0115688D02*
X0116632Y0115688D01*
X0121602Y0115688D02*
X0168801Y0115688D01*
X0168269Y0114089D02*
X0123200Y0114089D01*
X0123751Y0112491D02*
X0168269Y0112491D01*
X0168269Y0110892D02*
X0123751Y0110892D01*
X0123299Y0109294D02*
X0168269Y0109294D01*
X0168682Y0107695D02*
X0156366Y0107695D01*
X0157609Y0106097D02*
X0168269Y0106097D01*
X0168269Y0104498D02*
X0157609Y0104498D01*
X0157609Y0102900D02*
X0168269Y0102900D01*
X0168269Y0101301D02*
X0156251Y0101301D01*
X0149812Y0101301D02*
X0117164Y0101301D01*
X0117164Y0102900D02*
X0117768Y0102900D01*
X0116828Y0099703D02*
X0168605Y0099703D01*
X0168269Y0098104D02*
X0117164Y0098104D01*
X0117164Y0096506D02*
X0168269Y0096506D01*
X0168269Y0094907D02*
X0164036Y0094907D01*
X0158562Y0094907D02*
X0117164Y0094907D01*
X0117164Y0093309D02*
X0136885Y0093309D01*
X0135461Y0091710D02*
X0116877Y0091710D01*
X0122506Y0090112D02*
X0135461Y0090112D01*
X0134321Y0088513D02*
X0124104Y0088513D01*
X0125703Y0086915D02*
X0132723Y0086915D01*
X0131124Y0085316D02*
X0127301Y0085316D01*
X0128900Y0083718D02*
X0129526Y0083718D01*
X0144617Y0090112D02*
X0146630Y0090112D01*
X0144617Y0091710D02*
X0150641Y0091710D01*
X0154635Y0091710D02*
X0156721Y0091710D01*
X0156721Y0090112D02*
X0156233Y0090112D01*
X0156964Y0093309D02*
X0143194Y0093309D01*
X0149697Y0107695D02*
X0121700Y0107695D01*
X0119173Y0111643D02*
X0110984Y0111643D01*
X0110827Y0111800D01*
X0093880Y0090112D02*
X0065961Y0090112D01*
X0067560Y0088513D02*
X0095479Y0088513D01*
X0098644Y0086915D02*
X0068525Y0086915D01*
X0069258Y0085316D02*
X0098644Y0085316D01*
X0098644Y0083718D02*
X0069687Y0083718D01*
X0069837Y0082119D02*
X0075256Y0082119D01*
X0075871Y0082734D02*
X0072971Y0079835D01*
X0072971Y0077784D01*
X0072971Y0075734D01*
X0075871Y0072834D01*
X0077921Y0072834D01*
X0077921Y0077784D01*
X0077921Y0077784D01*
X0072971Y0077784D01*
X0077921Y0077784D01*
X0077921Y0077784D01*
X0077921Y0072834D01*
X0079972Y0072834D01*
X0082871Y0075734D01*
X0082871Y0077784D01*
X0077921Y0077784D01*
X0077921Y0082734D01*
X0075871Y0082734D01*
X0077921Y0082734D02*
X0079972Y0082734D01*
X0082871Y0079835D01*
X0082871Y0077784D01*
X0077921Y0077784D01*
X0077921Y0077784D01*
X0077921Y0077784D01*
X0077921Y0082734D01*
X0077921Y0082119D02*
X0077921Y0082119D01*
X0077921Y0080521D02*
X0077921Y0080521D01*
X0077921Y0078922D02*
X0077921Y0078922D01*
X0077921Y0077324D02*
X0077921Y0077324D01*
X0077921Y0075725D02*
X0077921Y0075725D01*
X0077921Y0074127D02*
X0077921Y0074127D01*
X0074578Y0074127D02*
X0066757Y0074127D01*
X0068061Y0075725D02*
X0072980Y0075725D01*
X0072971Y0077324D02*
X0068984Y0077324D01*
X0069472Y0078922D02*
X0072971Y0078922D01*
X0073657Y0080521D02*
X0069837Y0080521D01*
X0080587Y0082119D02*
X0088407Y0082119D01*
X0087047Y0080521D02*
X0082185Y0080521D01*
X0082871Y0078922D02*
X0086385Y0078922D01*
X0086371Y0077324D02*
X0082871Y0077324D01*
X0082863Y0075725D02*
X0086767Y0075725D01*
X0087730Y0074127D02*
X0081264Y0074127D01*
X0090108Y0072528D02*
X0064814Y0072528D01*
X0060777Y0070930D02*
X0101252Y0070930D01*
X0099653Y0072528D02*
X0093735Y0072528D01*
X0096113Y0074127D02*
X0098055Y0074127D01*
X0103250Y0069331D02*
X0056182Y0069331D01*
X0057097Y0070930D02*
X0054829Y0070930D01*
X0053060Y0072528D02*
X0052799Y0072528D01*
X0051117Y0074127D02*
X0042287Y0074127D01*
X0041453Y0072528D02*
X0039964Y0072528D01*
X0036115Y0072528D02*
X0034515Y0072528D01*
X0034515Y0074127D02*
X0036115Y0074127D01*
X0036115Y0075725D02*
X0034515Y0075725D01*
X0034515Y0077324D02*
X0036115Y0077324D01*
X0036115Y0078922D02*
X0034515Y0078922D01*
X0043707Y0075725D02*
X0049813Y0075725D01*
X0048890Y0077324D02*
X0044629Y0077324D01*
X0045241Y0078922D02*
X0048402Y0078922D01*
X0048037Y0080521D02*
X0045545Y0080521D01*
X0057105Y0067733D02*
X0106256Y0067733D01*
X0106328Y0066134D02*
X0057629Y0066134D01*
X0058026Y0064536D02*
X0106328Y0064536D01*
X0106328Y0062937D02*
X0058026Y0062937D01*
X0057907Y0061339D02*
X0107306Y0061339D01*
X0107306Y0059740D02*
X0057479Y0059740D01*
X0056782Y0058142D02*
X0104878Y0058142D01*
X0104569Y0056543D02*
X0055859Y0056543D01*
X0058548Y0050844D02*
X0055648Y0047945D01*
X0055648Y0045895D01*
X0060598Y0045895D01*
X0060598Y0050844D01*
X0058548Y0050844D01*
X0057853Y0050149D02*
X0023699Y0050149D01*
X0023695Y0048551D02*
X0056254Y0048551D01*
X0055648Y0046952D02*
X0023691Y0046952D01*
X0023687Y0045354D02*
X0055648Y0045354D01*
X0055648Y0045894D02*
X0055648Y0043844D01*
X0058548Y0040944D01*
X0060598Y0040944D01*
X0060598Y0045894D01*
X0060598Y0045894D01*
X0055648Y0045894D01*
X0055738Y0043755D02*
X0023683Y0043755D01*
X0023679Y0042156D02*
X0057336Y0042156D01*
X0060598Y0042156D02*
X0060598Y0042156D01*
X0060598Y0040944D02*
X0062649Y0040944D01*
X0065548Y0043844D01*
X0065548Y0045894D01*
X0060599Y0045894D01*
X0060599Y0045895D01*
X0065548Y0045895D01*
X0065548Y0047945D01*
X0062649Y0050844D01*
X0060598Y0050844D01*
X0060598Y0045895D01*
X0060598Y0045895D01*
X0060598Y0045894D01*
X0060598Y0040944D01*
X0063861Y0042156D02*
X0070488Y0042156D01*
X0069477Y0043755D02*
X0065459Y0043755D01*
X0065548Y0045354D02*
X0069048Y0045354D01*
X0069048Y0046952D02*
X0065548Y0046952D01*
X0064943Y0048551D02*
X0069691Y0048551D01*
X0071004Y0050149D02*
X0063344Y0050149D01*
X0060598Y0050149D02*
X0060598Y0050149D01*
X0060598Y0048551D02*
X0060598Y0048551D01*
X0060598Y0046952D02*
X0060598Y0046952D01*
X0060598Y0045354D02*
X0060598Y0045354D01*
X0060598Y0043755D02*
X0060598Y0043755D01*
X0072979Y0040558D02*
X0023675Y0040558D01*
X0023671Y0038959D02*
X0092974Y0038959D01*
X0092034Y0037361D02*
X0023667Y0037361D01*
X0023663Y0035762D02*
X0088984Y0035762D01*
X0088820Y0034164D02*
X0023659Y0034164D01*
X0023655Y0032565D02*
X0028924Y0032565D01*
X0025101Y0030967D02*
X0023651Y0030967D01*
X0038038Y0032565D02*
X0080104Y0032565D01*
X0078540Y0030967D02*
X0041712Y0030967D01*
X0044150Y0029368D02*
X0078540Y0029368D01*
X0078540Y0027770D02*
X0045633Y0027770D01*
X0047105Y0026171D02*
X0079062Y0026171D01*
X0080661Y0024573D02*
X0047875Y0024573D01*
X0048645Y0022974D02*
X0088820Y0022974D01*
X0088820Y0024573D02*
X0086820Y0024573D01*
X0086178Y0021376D02*
X0049277Y0021376D01*
X0049518Y0019777D02*
X0084579Y0019777D01*
X0080718Y0018179D02*
X0049759Y0018179D01*
X0049886Y0016580D02*
X0079119Y0016580D01*
X0078540Y0014982D02*
X0049645Y0014982D01*
X0049405Y0013383D02*
X0078540Y0013383D01*
X0078540Y0011785D02*
X0049052Y0011785D01*
X0048282Y0010186D02*
X0080047Y0010186D01*
X0087376Y0032565D02*
X0088820Y0032565D01*
X0094572Y0040558D02*
X0076218Y0040558D01*
X0103219Y0054945D02*
X0104569Y0054945D01*
X0117243Y0054945D02*
X0117692Y0054945D01*
X0117243Y0053346D02*
X0119290Y0053346D01*
X0120889Y0051748D02*
X0117243Y0051748D01*
X0117243Y0050149D02*
X0122487Y0050149D01*
X0124086Y0048551D02*
X0116121Y0048551D01*
X0117002Y0046952D02*
X0125684Y0046952D01*
X0124219Y0046142D02*
X0120427Y0046142D01*
X0117745Y0043460D01*
X0117745Y0039668D01*
X0120427Y0036986D01*
X0124219Y0036986D01*
X0126901Y0039668D01*
X0126901Y0043460D01*
X0124219Y0046142D01*
X0125007Y0045354D02*
X0127283Y0045354D01*
X0126606Y0043755D02*
X0128881Y0043755D01*
X0130480Y0042156D02*
X0126901Y0042156D01*
X0126901Y0040558D02*
X0132078Y0040558D01*
X0133677Y0038959D02*
X0126193Y0038959D01*
X0124594Y0037361D02*
X0135275Y0037361D01*
X0136115Y0035762D02*
X0136874Y0035762D01*
X0136115Y0034164D02*
X0137665Y0034164D01*
X0137665Y0032565D02*
X0136115Y0032565D01*
X0136115Y0030967D02*
X0131416Y0030967D01*
X0131416Y0032565D02*
X0131940Y0032565D01*
X0131940Y0034164D02*
X0131416Y0034164D01*
X0130731Y0035762D02*
X0133052Y0035762D01*
X0137665Y0030967D02*
X0141669Y0030967D01*
X0141839Y0029368D02*
X0166980Y0029368D01*
X0166980Y0027770D02*
X0141839Y0027770D01*
X0131940Y0027770D02*
X0131416Y0027770D01*
X0131416Y0029368D02*
X0131940Y0029368D01*
X0120051Y0037361D02*
X0115720Y0037361D01*
X0116024Y0035762D02*
X0116024Y0035762D01*
X0116024Y0034164D02*
X0116024Y0034164D01*
X0117177Y0038959D02*
X0118453Y0038959D01*
X0117745Y0040558D02*
X0117243Y0040558D01*
X0117243Y0042156D02*
X0117745Y0042156D01*
X0118040Y0043755D02*
X0117243Y0043755D01*
X0117243Y0045354D02*
X0119638Y0045354D01*
X0135232Y0054945D02*
X0148006Y0054945D01*
X0146408Y0056543D02*
X0133633Y0056543D01*
X0132035Y0058142D02*
X0144809Y0058142D01*
X0136830Y0053346D02*
X0182216Y0053346D01*
X0182216Y0052114D02*
X0182216Y0054726D01*
X0187178Y0054726D01*
X0188728Y0054726D01*
X0188728Y0056276D01*
X0193690Y0056276D01*
X0193690Y0058887D01*
X0193567Y0059345D01*
X0193330Y0059756D01*
X0192995Y0060091D01*
X0192585Y0060328D01*
X0192127Y0060450D01*
X0188728Y0060450D01*
X0188728Y0056276D01*
X0187178Y0056276D01*
X0187178Y0060450D01*
X0183779Y0060450D01*
X0183321Y0060328D01*
X0182911Y0060091D01*
X0182575Y0059756D01*
X0182338Y0059345D01*
X0182216Y0058887D01*
X0182216Y0056276D01*
X0187178Y0056276D01*
X0187178Y0054726D01*
X0187178Y0050551D01*
X0183779Y0050551D01*
X0183321Y0050674D01*
X0182911Y0050911D01*
X0182575Y0051246D01*
X0182338Y0051656D01*
X0182216Y0052114D01*
X0182314Y0051748D02*
X0138429Y0051748D01*
X0140027Y0050149D02*
X0212738Y0050149D01*
X0211830Y0051748D02*
X0193592Y0051748D01*
X0193567Y0051656D02*
X0193690Y0052114D01*
X0193690Y0054726D01*
X0188728Y0054726D01*
X0188728Y0050551D01*
X0192127Y0050551D01*
X0192585Y0050674D01*
X0192995Y0050911D01*
X0193330Y0051246D01*
X0193567Y0051656D01*
X0193020Y0048551D02*
X0214945Y0048551D01*
X0211458Y0053346D02*
X0193690Y0053346D01*
X0193690Y0056543D02*
X0199703Y0056543D01*
X0198070Y0058142D02*
X0193690Y0058142D01*
X0193339Y0059740D02*
X0196471Y0059740D01*
X0195295Y0061339D02*
X0193245Y0061339D01*
X0194290Y0062937D02*
X0195107Y0062937D01*
X0195107Y0064536D02*
X0194290Y0064536D01*
X0194290Y0066134D02*
X0195107Y0066134D01*
X0195107Y0067733D02*
X0194290Y0067733D01*
X0194290Y0069331D02*
X0195107Y0069331D01*
X0194337Y0070930D02*
X0193967Y0070930D01*
X0198307Y0071485D02*
X0198307Y0062430D01*
X0201457Y0059280D01*
X0220945Y0059280D01*
X0228465Y0066406D01*
X0235632Y0062937D02*
X0246564Y0062937D01*
X0246521Y0062835D02*
X0246521Y0060686D01*
X0247343Y0058702D01*
X0248862Y0057183D01*
X0250715Y0056416D01*
X0250079Y0056209D01*
X0249406Y0055866D01*
X0248794Y0055422D01*
X0248260Y0054888D01*
X0247816Y0054276D01*
X0247473Y0053603D01*
X0247239Y0052885D01*
X0247121Y0052138D01*
X0247121Y0051961D01*
X0254721Y0051961D01*
X0254721Y0051561D01*
X0247121Y0051561D01*
X0247121Y0051383D01*
X0247239Y0050637D01*
X0247473Y0049918D01*
X0247816Y0049245D01*
X0248260Y0048634D01*
X0248794Y0048099D01*
X0249406Y0047655D01*
X0250079Y0047312D01*
X0250797Y0047079D01*
X0251543Y0046961D01*
X0254721Y0046961D01*
X0254721Y0051561D01*
X0255121Y0051561D01*
X0255121Y0051961D01*
X0262721Y0051961D01*
X0262721Y0052138D01*
X0262603Y0052885D01*
X0262370Y0053603D01*
X0262027Y0054276D01*
X0261582Y0054888D01*
X0261048Y0055422D01*
X0260437Y0055866D01*
X0259764Y0056209D01*
X0259128Y0056416D01*
X0260980Y0057183D01*
X0262499Y0058702D01*
X0263321Y0060686D01*
X0263321Y0062835D01*
X0262499Y0064819D01*
X0260980Y0066339D01*
X0259961Y0066761D01*
X0260980Y0067183D01*
X0262499Y0068702D01*
X0263321Y0070686D01*
X0263321Y0072835D01*
X0262499Y0074819D01*
X0260980Y0076339D01*
X0259961Y0076761D01*
X0260980Y0077183D01*
X0262499Y0078702D01*
X0263321Y0080686D01*
X0263321Y0082835D01*
X0262499Y0084819D01*
X0260980Y0086339D01*
X0259961Y0086761D01*
X0260980Y0087183D01*
X0262499Y0088702D01*
X0263321Y0090686D01*
X0263321Y0092835D01*
X0262499Y0094819D01*
X0260980Y0096339D01*
X0259961Y0096761D01*
X0260980Y0097183D01*
X0262499Y0098702D01*
X0263321Y0100686D01*
X0263321Y0102835D01*
X0262499Y0104819D01*
X0260980Y0106339D01*
X0258995Y0107161D01*
X0250847Y0107161D01*
X0248862Y0106339D01*
X0247343Y0104819D01*
X0246521Y0102835D01*
X0246521Y0100686D01*
X0247343Y0098702D01*
X0248862Y0097183D01*
X0249881Y0096761D01*
X0248862Y0096339D01*
X0247343Y0094819D01*
X0246521Y0092835D01*
X0246521Y0090686D01*
X0247343Y0088702D01*
X0248862Y0087183D01*
X0249881Y0086761D01*
X0248862Y0086339D01*
X0247343Y0084819D01*
X0246521Y0082835D01*
X0246521Y0080686D01*
X0247343Y0078702D01*
X0248862Y0077183D01*
X0249881Y0076761D01*
X0248862Y0076339D01*
X0247343Y0074819D01*
X0246521Y0072835D01*
X0246521Y0070686D01*
X0247343Y0068702D01*
X0248862Y0067183D01*
X0249881Y0066761D01*
X0248862Y0066339D01*
X0247343Y0064819D01*
X0246521Y0062835D01*
X0246521Y0061339D02*
X0233341Y0061339D01*
X0236535Y0064536D02*
X0247226Y0064536D01*
X0248658Y0066134D02*
X0236865Y0066134D01*
X0236760Y0067733D02*
X0248312Y0067733D01*
X0247083Y0069331D02*
X0236098Y0069331D01*
X0234578Y0070930D02*
X0246521Y0070930D01*
X0246521Y0072528D02*
X0235223Y0072528D01*
X0236365Y0074127D02*
X0247056Y0074127D01*
X0248249Y0075725D02*
X0236865Y0075725D01*
X0236865Y0077324D02*
X0248721Y0077324D01*
X0247252Y0078922D02*
X0236267Y0078922D01*
X0234987Y0080521D02*
X0246590Y0080521D01*
X0246521Y0082119D02*
X0234814Y0082119D01*
X0236196Y0083718D02*
X0246887Y0083718D01*
X0247840Y0085316D02*
X0236858Y0085316D01*
X0236865Y0086915D02*
X0249509Y0086915D01*
X0247532Y0088513D02*
X0236437Y0088513D01*
X0235396Y0090112D02*
X0246759Y0090112D01*
X0246521Y0091710D02*
X0232770Y0091710D01*
X0223135Y0093309D02*
X0246718Y0093309D01*
X0247431Y0094907D02*
X0221536Y0094907D01*
X0220602Y0096506D02*
X0249266Y0096506D01*
X0247941Y0098104D02*
X0220288Y0098104D01*
X0218689Y0099703D02*
X0246929Y0099703D01*
X0246521Y0101301D02*
X0209208Y0101301D01*
X0208791Y0102900D02*
X0246548Y0102900D01*
X0247210Y0104498D02*
X0243326Y0104498D01*
X0244925Y0106097D02*
X0248621Y0106097D01*
X0246523Y0107695D02*
X0289833Y0107695D01*
X0289829Y0106097D02*
X0261222Y0106097D01*
X0262632Y0104498D02*
X0289825Y0104498D01*
X0289821Y0102900D02*
X0263294Y0102900D01*
X0263321Y0101301D02*
X0289817Y0101301D01*
X0289813Y0099703D02*
X0262914Y0099703D01*
X0261902Y0098104D02*
X0289809Y0098104D01*
X0289805Y0096506D02*
X0260576Y0096506D01*
X0262411Y0094907D02*
X0289801Y0094907D01*
X0289797Y0093309D02*
X0263125Y0093309D01*
X0263321Y0091710D02*
X0289793Y0091710D01*
X0289789Y0090112D02*
X0263083Y0090112D01*
X0262311Y0088513D02*
X0289785Y0088513D01*
X0289781Y0086915D02*
X0260333Y0086915D01*
X0262002Y0085316D02*
X0289777Y0085316D01*
X0289773Y0083718D02*
X0262955Y0083718D01*
X0263321Y0082119D02*
X0289769Y0082119D01*
X0289765Y0080521D02*
X0263253Y0080521D01*
X0262590Y0078922D02*
X0289761Y0078922D01*
X0289757Y0077324D02*
X0261121Y0077324D01*
X0261593Y0075725D02*
X0289753Y0075725D01*
X0289749Y0074127D02*
X0262786Y0074127D01*
X0263321Y0072528D02*
X0289745Y0072528D01*
X0289741Y0070930D02*
X0263321Y0070930D01*
X0262760Y0069331D02*
X0289738Y0069331D01*
X0289734Y0067733D02*
X0261530Y0067733D01*
X0261184Y0066134D02*
X0289730Y0066134D01*
X0289726Y0064536D02*
X0262617Y0064536D01*
X0263279Y0062937D02*
X0289722Y0062937D01*
X0289718Y0061339D02*
X0263321Y0061339D01*
X0262929Y0059740D02*
X0289714Y0059740D01*
X0289710Y0058142D02*
X0261939Y0058142D01*
X0259436Y0056543D02*
X0289706Y0056543D01*
X0289702Y0054945D02*
X0261526Y0054945D01*
X0262453Y0053346D02*
X0289698Y0053346D01*
X0289694Y0051748D02*
X0255121Y0051748D01*
X0255121Y0051561D02*
X0262721Y0051561D01*
X0262721Y0051383D01*
X0262603Y0050637D01*
X0262370Y0049918D01*
X0262027Y0049245D01*
X0261582Y0048634D01*
X0261048Y0048099D01*
X0260437Y0047655D01*
X0259764Y0047312D01*
X0259045Y0047079D01*
X0258299Y0046961D01*
X0255121Y0046961D01*
X0255121Y0051561D01*
X0254721Y0051748D02*
X0228879Y0051748D01*
X0229250Y0053346D02*
X0247389Y0053346D01*
X0248317Y0054945D02*
X0229229Y0054945D01*
X0228566Y0056543D02*
X0250407Y0056543D01*
X0247904Y0058142D02*
X0227217Y0058142D01*
X0226082Y0059740D02*
X0246913Y0059740D01*
X0247398Y0050149D02*
X0227970Y0050149D01*
X0225764Y0048551D02*
X0248343Y0048551D01*
X0254721Y0048551D02*
X0255121Y0048551D01*
X0255121Y0050149D02*
X0254721Y0050149D01*
X0261499Y0048551D02*
X0289686Y0048551D01*
X0289690Y0050149D02*
X0262445Y0050149D01*
X0289682Y0046952D02*
X0194295Y0046952D01*
X0194888Y0045354D02*
X0289678Y0045354D01*
X0289674Y0043755D02*
X0194888Y0043755D01*
X0194888Y0042156D02*
X0289670Y0042156D01*
X0289666Y0040558D02*
X0194888Y0040558D01*
X0194888Y0038959D02*
X0289662Y0038959D01*
X0289658Y0037361D02*
X0194884Y0037361D01*
X0194222Y0035762D02*
X0289654Y0035762D01*
X0289650Y0034164D02*
X0192843Y0034164D01*
X0197337Y0030967D02*
X0271164Y0030967D01*
X0269159Y0029368D02*
X0197951Y0029368D01*
X0197951Y0027770D02*
X0267351Y0027770D01*
X0266261Y0026171D02*
X0197951Y0026171D01*
X0197951Y0024573D02*
X0265171Y0024573D01*
X0264491Y0022974D02*
X0197951Y0022974D01*
X0199177Y0021376D02*
X0263998Y0021376D01*
X0274987Y0032565D02*
X0160874Y0032565D01*
X0159276Y0030967D02*
X0167964Y0030967D01*
X0166133Y0034164D02*
X0162843Y0034164D01*
X0164222Y0035762D02*
X0164755Y0035762D01*
X0172843Y0034164D02*
X0177319Y0034164D01*
X0179288Y0034164D02*
X0179688Y0034164D01*
X0179688Y0035762D02*
X0179288Y0035762D01*
X0179288Y0037361D02*
X0179688Y0037361D01*
X0179688Y0038959D02*
X0179288Y0038959D01*
X0179288Y0040558D02*
X0179688Y0040558D01*
X0179688Y0042156D02*
X0179288Y0042156D01*
X0179288Y0043755D02*
X0179688Y0043755D01*
X0179688Y0045354D02*
X0179288Y0045354D01*
X0179288Y0046952D02*
X0179688Y0046952D01*
X0179688Y0048551D02*
X0179288Y0048551D01*
X0176972Y0048551D02*
X0173020Y0048551D01*
X0174295Y0046952D02*
X0175378Y0046952D01*
X0182005Y0048551D02*
X0185956Y0048551D01*
X0184681Y0046952D02*
X0183598Y0046952D01*
X0187178Y0051748D02*
X0188728Y0051748D01*
X0188728Y0053346D02*
X0187178Y0053346D01*
X0187178Y0054945D02*
X0166718Y0054945D01*
X0168316Y0056543D02*
X0182216Y0056543D01*
X0182216Y0058142D02*
X0169817Y0058142D01*
X0170205Y0059740D02*
X0182566Y0059740D01*
X0182660Y0061339D02*
X0170205Y0061339D01*
X0170205Y0062937D02*
X0181616Y0062937D01*
X0181616Y0064536D02*
X0170205Y0064536D01*
X0170205Y0066134D02*
X0181616Y0066134D01*
X0181616Y0067733D02*
X0170205Y0067733D01*
X0174225Y0069331D02*
X0174987Y0069331D01*
X0174987Y0070930D02*
X0174225Y0070930D01*
X0174987Y0072528D02*
X0184953Y0072528D01*
X0184953Y0074127D02*
X0180343Y0074127D01*
X0180083Y0075725D02*
X0184953Y0075725D01*
X0181938Y0070930D02*
X0180343Y0070930D01*
X0180197Y0069331D02*
X0181616Y0069331D01*
X0193031Y0076761D02*
X0198307Y0071485D01*
X0204606Y0077036D02*
X0204606Y0065186D01*
X0209184Y0064536D02*
X0220394Y0064536D01*
X0220152Y0062937D02*
X0208832Y0062937D01*
X0209184Y0066134D02*
X0220065Y0066134D01*
X0220169Y0067733D02*
X0208534Y0067733D01*
X0207806Y0069331D02*
X0220831Y0069331D01*
X0222351Y0070930D02*
X0207806Y0070930D01*
X0209338Y0072528D02*
X0221706Y0072528D01*
X0220564Y0074127D02*
X0209605Y0074127D01*
X0209605Y0075725D02*
X0220065Y0075725D01*
X0220065Y0077324D02*
X0209605Y0077324D01*
X0209605Y0078922D02*
X0220662Y0078922D01*
X0221942Y0080521D02*
X0209605Y0080521D01*
X0209556Y0082119D02*
X0222115Y0082119D01*
X0220733Y0083718D02*
X0208181Y0083718D01*
X0207413Y0085316D02*
X0220071Y0085316D01*
X0220065Y0086915D02*
X0207413Y0086915D01*
X0207413Y0088513D02*
X0218879Y0088513D01*
X0217281Y0090112D02*
X0208989Y0090112D01*
X0209762Y0091710D02*
X0213734Y0091710D01*
X0212135Y0093309D02*
X0209762Y0093309D01*
X0209762Y0094907D02*
X0211446Y0094907D01*
X0211446Y0096506D02*
X0209762Y0096506D01*
X0209762Y0098104D02*
X0211759Y0098104D01*
X0213358Y0099703D02*
X0209762Y0099703D01*
X0204213Y0102981D02*
X0204213Y0095816D01*
X0204213Y0077745D01*
X0204055Y0077587D01*
X0204606Y0077036D01*
X0193031Y0076761D02*
X0193031Y0077587D01*
X0182441Y0088178D01*
X0174606Y0088178D01*
X0174843Y0095816D02*
X0174606Y0096052D01*
X0174843Y0095816D02*
X0193189Y0095816D01*
X0193189Y0086839D01*
X0216024Y0095894D02*
X0225512Y0086406D01*
X0228465Y0086406D01*
X0240433Y0106131D02*
X0209724Y0106131D01*
X0208150Y0107706D01*
X0191614Y0107706D01*
X0188071Y0104162D01*
X0174843Y0104162D01*
X0174606Y0103926D01*
X0174606Y0111800D02*
X0182323Y0111800D01*
X0182559Y0112036D01*
X0182953Y0119517D02*
X0192008Y0110461D01*
X0238465Y0110461D01*
X0240433Y0106131D02*
X0251614Y0117312D01*
X0251614Y0120422D01*
X0257014Y0120484D02*
X0289865Y0120484D01*
X0289869Y0122082D02*
X0257014Y0122082D01*
X0257014Y0123681D02*
X0289873Y0123681D01*
X0289877Y0125279D02*
X0256690Y0125279D01*
X0255795Y0126878D02*
X0289881Y0126878D01*
X0289885Y0128476D02*
X0253523Y0128476D01*
X0249705Y0128476D02*
X0243523Y0128476D01*
X0245795Y0126878D02*
X0247433Y0126878D01*
X0239705Y0128476D02*
X0223523Y0128476D01*
X0225795Y0126878D02*
X0228281Y0126878D01*
X0227173Y0125279D02*
X0226690Y0125279D01*
X0231414Y0125279D02*
X0231814Y0125279D01*
X0231814Y0123681D02*
X0231414Y0123681D01*
X0231414Y0122082D02*
X0231814Y0122082D01*
X0236055Y0125279D02*
X0236538Y0125279D01*
X0237433Y0126878D02*
X0234947Y0126878D01*
X0231814Y0126878D02*
X0231414Y0126878D01*
X0219705Y0128476D02*
X0180943Y0128476D01*
X0180943Y0126878D02*
X0217433Y0126878D01*
X0216538Y0125279D02*
X0180943Y0125279D01*
X0180432Y0123681D02*
X0216214Y0123681D01*
X0216214Y0122082D02*
X0184913Y0122082D01*
X0186511Y0120484D02*
X0216214Y0120484D01*
X0216214Y0118885D02*
X0188110Y0118885D01*
X0189708Y0117287D02*
X0216214Y0117287D01*
X0216488Y0115688D02*
X0191307Y0115688D01*
X0192905Y0114089D02*
X0217310Y0114089D01*
X0248122Y0109294D02*
X0289837Y0109294D01*
X0289841Y0110892D02*
X0249720Y0110892D01*
X0253820Y0112491D02*
X0289845Y0112491D01*
X0289849Y0114089D02*
X0255918Y0114089D01*
X0256741Y0115688D02*
X0289853Y0115688D01*
X0289857Y0117287D02*
X0257014Y0117287D01*
X0257014Y0118885D02*
X0289861Y0118885D01*
X0289889Y0130075D02*
X0286344Y0130075D01*
X0289113Y0131673D02*
X0289893Y0131673D01*
X0273019Y0130075D02*
X0180943Y0130075D01*
X0180175Y0131673D02*
X0270195Y0131673D01*
X0268191Y0133272D02*
X0178227Y0133272D01*
X0178227Y0134870D02*
X0266824Y0134870D01*
X0265734Y0136469D02*
X0178227Y0136469D01*
X0178227Y0138067D02*
X0264746Y0138067D01*
X0264253Y0139666D02*
X0178227Y0139666D01*
X0178227Y0141264D02*
X0263760Y0141264D01*
X0263389Y0142863D02*
X0178227Y0142863D01*
X0178227Y0144461D02*
X0263389Y0144461D01*
X0263389Y0146060D02*
X0178227Y0146060D01*
X0178227Y0147658D02*
X0263483Y0147658D01*
X0263976Y0149257D02*
X0178227Y0149257D01*
X0178227Y0150855D02*
X0264469Y0150855D01*
X0265122Y0152454D02*
X0178227Y0152454D01*
X0178227Y0154052D02*
X0266212Y0154052D01*
X0182953Y0119517D02*
X0174764Y0119517D01*
X0174606Y0119674D01*
X0174055Y0126997D02*
X0166417Y0126997D01*
X0174055Y0126997D02*
X0174606Y0127548D01*
X0108427Y0154052D02*
X0108041Y0154052D01*
X0105787Y0149831D02*
X0105630Y0149674D01*
X0097913Y0149674D01*
X0091576Y0149257D02*
X0049288Y0149257D01*
X0049529Y0147658D02*
X0057173Y0147658D01*
X0055669Y0146060D02*
X0049770Y0146060D01*
X0049876Y0144461D02*
X0055669Y0144461D01*
X0055669Y0142863D02*
X0049635Y0142863D01*
X0049394Y0141264D02*
X0056418Y0141264D01*
X0057069Y0139666D02*
X0049017Y0139666D01*
X0048247Y0138067D02*
X0057069Y0138067D01*
X0057069Y0136469D02*
X0047477Y0136469D01*
X0046350Y0134870D02*
X0057086Y0134870D01*
X0057932Y0133272D02*
X0044867Y0133272D01*
X0047649Y0131673D02*
X0058487Y0131673D01*
X0058487Y0130075D02*
X0048909Y0130075D01*
X0049572Y0128476D02*
X0058487Y0128476D01*
X0058487Y0126878D02*
X0049599Y0126878D01*
X0049308Y0125279D02*
X0058487Y0125279D01*
X0058487Y0123681D02*
X0048610Y0123681D01*
X0047012Y0122082D02*
X0058487Y0122082D01*
X0058487Y0120484D02*
X0023874Y0120484D01*
X0023878Y0122082D02*
X0039987Y0122082D01*
X0038388Y0123681D02*
X0023882Y0123681D01*
X0023886Y0125279D02*
X0037691Y0125279D01*
X0037399Y0126878D02*
X0023890Y0126878D01*
X0023894Y0128476D02*
X0037427Y0128476D01*
X0026956Y0130075D02*
X0023898Y0130075D01*
X0023902Y0131673D02*
X0024132Y0131673D01*
X0023871Y0118885D02*
X0058487Y0118885D01*
X0058487Y0117287D02*
X0023867Y0117287D01*
X0023863Y0115688D02*
X0058487Y0115688D01*
X0058487Y0114089D02*
X0047432Y0114089D01*
X0046955Y0114567D02*
X0044713Y0115496D01*
X0042286Y0115496D01*
X0040044Y0114567D01*
X0038328Y0112851D01*
X0037399Y0110609D01*
X0037399Y0108183D01*
X0038328Y0105941D01*
X0040044Y0104225D01*
X0042286Y0103296D01*
X0044713Y0103296D01*
X0046955Y0104225D01*
X0048671Y0105941D01*
X0049599Y0108183D01*
X0049599Y0110609D01*
X0048671Y0112851D01*
X0046955Y0114567D01*
X0048820Y0112491D02*
X0058487Y0112491D01*
X0058487Y0110892D02*
X0049482Y0110892D01*
X0049599Y0109294D02*
X0058487Y0109294D01*
X0058487Y0107695D02*
X0049397Y0107695D01*
X0048735Y0106097D02*
X0058693Y0106097D01*
X0059809Y0104498D02*
X0047228Y0104498D01*
X0039770Y0104498D02*
X0023835Y0104498D01*
X0023831Y0102900D02*
X0061407Y0102900D01*
X0063006Y0101301D02*
X0023827Y0101301D01*
X0023823Y0099703D02*
X0064924Y0099703D01*
X0038263Y0106097D02*
X0023839Y0106097D01*
X0023843Y0107695D02*
X0037601Y0107695D01*
X0037399Y0109294D02*
X0023847Y0109294D01*
X0023851Y0110892D02*
X0037516Y0110892D01*
X0038179Y0112491D02*
X0023855Y0112491D01*
X0023859Y0114089D02*
X0039566Y0114089D01*
X0064921Y0141264D02*
X0076418Y0141264D01*
X0075669Y0142863D02*
X0065669Y0142863D01*
X0065669Y0144461D02*
X0075669Y0144461D01*
X0075669Y0146060D02*
X0065669Y0146060D01*
X0064166Y0147658D02*
X0077173Y0147658D01*
X0084166Y0147658D02*
X0091576Y0147658D01*
X0091576Y0146060D02*
X0085669Y0146060D01*
X0091576Y0150855D02*
X0048680Y0150855D01*
X0047910Y0152454D02*
X0091576Y0152454D01*
X0091888Y0154052D02*
X0047140Y0154052D01*
X0095435Y0082119D02*
X0098644Y0082119D01*
X0110827Y0064871D02*
X0110906Y0064792D01*
X0141626Y0048551D02*
X0145956Y0048551D01*
X0144681Y0046952D02*
X0143224Y0046952D01*
X0153020Y0048551D02*
X0155956Y0048551D01*
X0154681Y0046952D02*
X0154295Y0046952D01*
X0163020Y0048551D02*
X0165956Y0048551D01*
X0164681Y0046952D02*
X0164295Y0046952D01*
X0174222Y0035762D02*
X0175505Y0035762D01*
X0181658Y0034164D02*
X0186133Y0034164D01*
X0184755Y0035762D02*
X0183472Y0035762D01*
X0184316Y0030967D02*
X0179043Y0030967D01*
X0180028Y0029368D02*
X0183702Y0029368D01*
X0183702Y0027770D02*
X0180028Y0027770D01*
X0180028Y0026171D02*
X0183702Y0026171D01*
X0183702Y0024573D02*
X0174304Y0024573D01*
X0174304Y0026171D02*
X0172704Y0026171D01*
X0172704Y0024573D02*
X0163303Y0024573D01*
X0164901Y0022974D02*
X0166980Y0022974D01*
X0166980Y0021376D02*
X0166500Y0021376D01*
X0166980Y0026171D02*
X0161704Y0026171D01*
X0172704Y0027770D02*
X0174304Y0027770D01*
X0174304Y0029368D02*
X0172704Y0029368D01*
X0172704Y0030967D02*
X0174304Y0030967D01*
X0180028Y0022974D02*
X0183702Y0022974D01*
X0182477Y0021376D02*
X0180028Y0021376D01*
X0180028Y0019777D02*
X0180878Y0019777D01*
X0187864Y0016580D02*
X0193790Y0016580D01*
X0195388Y0014982D02*
X0186265Y0014982D01*
X0184667Y0013383D02*
X0196987Y0013383D01*
X0198585Y0011785D02*
X0182574Y0011785D01*
X0188728Y0054945D02*
X0211480Y0054945D01*
X0188728Y0056543D02*
X0187178Y0056543D01*
X0187178Y0058142D02*
X0188728Y0058142D01*
X0188728Y0059740D02*
X0187178Y0059740D01*
X0284101Y0032565D02*
X0289646Y0032565D01*
X0289642Y0030967D02*
X0287775Y0030967D01*
D27*
X0204606Y0065186D03*
X0182559Y0076209D03*
X0193189Y0086839D03*
X0216024Y0095894D03*
X0204213Y0102981D03*
X0182559Y0112036D03*
X0162087Y0104556D03*
X0153031Y0104556D03*
X0161299Y0091170D03*
X0152638Y0087233D03*
X0162874Y0084477D03*
X0161693Y0075422D03*
X0154213Y0075422D03*
X0133740Y0078572D03*
X0122717Y0078572D03*
X0140039Y0089989D03*
X0119173Y0111643D03*
X0102244Y0108493D03*
X0102244Y0090776D03*
X0110906Y0064792D03*
X0082953Y0058493D03*
X0122323Y0041564D03*
X0238465Y0110461D03*
X0166417Y0126997D03*
X0105787Y0149831D03*
X0086890Y0135658D03*
D28*
X0203880Y0095794D02*
X0204213Y0095816D01*
X0204180Y0095494D02*
X0203880Y0095794D01*
D29*
X0187953Y0077509D02*
X0185315Y0080146D01*
X0174764Y0080146D01*
X0174606Y0080304D01*
X0162874Y0084477D02*
X0159724Y0084477D01*
X0156575Y0081328D01*
X0149882Y0081328D01*
X0138465Y0069910D01*
X0138465Y0064635D01*
X0138386Y0064556D01*
X0130512Y0064556D02*
X0130512Y0075107D01*
X0129803Y0075816D01*
X0129803Y0079753D01*
X0140039Y0089989D01*
X0143583Y0083296D02*
X0147520Y0087233D01*
X0152638Y0087233D01*
X0161299Y0091170D02*
X0166811Y0091170D01*
X0167205Y0090776D01*
X0167205Y0059674D01*
X0164449Y0056918D01*
X0150276Y0056918D01*
X0146260Y0060934D01*
X0146260Y0064556D01*
X0154134Y0064556D02*
X0154134Y0075343D01*
X0154213Y0075422D01*
X0161693Y0075422D02*
X0162008Y0075107D01*
X0162008Y0064556D01*
X0187953Y0066524D02*
X0187953Y0077509D01*
X0143583Y0083296D02*
X0138465Y0083296D01*
X0133740Y0078572D01*
X0126654Y0081721D02*
X0120354Y0088020D01*
X0110984Y0088020D01*
X0110827Y0088178D01*
X0110827Y0080304D02*
X0117047Y0080304D01*
X0117205Y0080146D01*
X0117205Y0059674D01*
X0143976Y0032902D01*
X0156969Y0032902D01*
X0159724Y0035658D01*
X0159724Y0041209D01*
X0159488Y0041446D01*
X0149488Y0041446D02*
X0144488Y0041446D01*
X0126654Y0059280D01*
X0126654Y0081721D01*
X0122717Y0078572D02*
X0122717Y0064635D01*
X0122638Y0064556D01*
X0120354Y0104556D02*
X0117205Y0107706D01*
X0103425Y0107706D01*
X0101063Y0110068D01*
X0120354Y0104556D02*
X0153031Y0104556D01*
M02*
