%
M48
M72
T01C0.02756
T02C0.03200
T03C0.03600
T04C0.04000
T05C0.04331
T06C0.11024
T07C0.11800
%
T01
X82953Y58493
X110906Y64792
X122717Y78572
X133740Y78572
X152638Y87233
X161299Y91170
X162874Y84477
X161693Y75422
X154213Y75422
X140039Y89989
X153031Y104556
X162087Y104556
X182559Y112036
X204213Y102981
X216024Y95894
X193189Y86839
X182559Y76209
X204606Y65186
X238465Y110461
X166417Y126997
X119173Y111643
X102244Y108493
X102244Y90776
X86890Y135658
X105787Y149831
X122323Y41564
T02
X74598Y45894
X60598Y45894
X77921Y77784
X91921Y77784
X80669Y144083
X60669Y144083
T03
X83740Y28847
X83740Y13847
T04
X149488Y41446
X159488Y41446
X169488Y41446
X179488Y41446
X189488Y41446
X228465Y66406
X228465Y76406
X228465Y86406
X254921Y81761
X254921Y91761
X254921Y101761
X251614Y120422
X241614Y120422
X231614Y120422
X221614Y120422
X254921Y71761
X254921Y61761
X254921Y51761
X69099Y109396
X43499Y109396
X43499Y127196
X69099Y127196
T05
X220354Y53769
X220354Y14398
T06
X33543Y16957
X33543Y144910
X279606Y144910
X279606Y16957
T07
X58937Y81721
X35315Y81721
X47126Y63217
M30
