G75*
%MOIN*%
%OFA0B0*%
%FSLAX25Y25*%
%IPPOS*%
%LPD*%
%AMOC8*
5,1,8,0,0,1.08239X$1,22.5*
%
%ADD10OC8,0.06000*%
%ADD11C,0.11824*%
%ADD12C,0.06800*%
%ADD13C,0.08200*%
%ADD14OC8,0.06400*%
%ADD15C,0.07296*%
%ADD16OC8,0.07100*%
%ADD17C,0.07100*%
%ADD18C,0.17800*%
%ADD19R,0.07887X0.07099*%
%ADD20R,0.03556X0.05524*%
%ADD21R,0.04737X0.05524*%
%ADD22R,0.04737X0.03950*%
%ADD23R,0.04737X0.11824*%
%ADD24R,0.05918X0.08280*%
%ADD25R,0.07099X0.08674*%
%ADD26OC8,0.05156*%
D10*
X0060669Y0144083D03*
X0080669Y0144083D03*
D11*
X0033543Y0016957D03*
X0033543Y0144910D03*
X0279606Y0144910D03*
X0279606Y0016957D03*
D12*
X0257921Y0051761D02*
X0251921Y0051761D01*
X0251921Y0061761D02*
X0257921Y0061761D01*
X0257921Y0071761D02*
X0251921Y0071761D01*
X0251921Y0081761D02*
X0257921Y0081761D01*
X0257921Y0091761D02*
X0251921Y0091761D01*
X0251921Y0101761D02*
X0257921Y0101761D01*
X0251614Y0117422D02*
X0251614Y0123422D01*
X0241614Y0123422D02*
X0241614Y0117422D01*
X0231614Y0117422D02*
X0231614Y0123422D01*
X0221614Y0123422D02*
X0221614Y0117422D01*
X0225465Y0086406D02*
X0231465Y0086406D01*
X0231465Y0076406D02*
X0225465Y0076406D01*
X0225465Y0066406D02*
X0231465Y0066406D01*
X0189488Y0044446D02*
X0189488Y0038446D01*
X0179488Y0038446D02*
X0179488Y0044446D01*
X0169488Y0044446D02*
X0169488Y0038446D01*
X0159488Y0038446D02*
X0159488Y0044446D01*
X0149488Y0044446D02*
X0149488Y0038446D01*
D13*
X0069099Y0109396D03*
X0043499Y0109396D03*
X0043499Y0127196D03*
X0069099Y0127196D03*
D14*
X0083740Y0028847D03*
X0083740Y0013847D03*
D15*
X0217106Y0014398D02*
X0223602Y0014398D01*
X0223602Y0053769D02*
X0217106Y0053769D01*
D16*
X0077921Y0077784D03*
X0060598Y0045894D03*
D17*
X0074598Y0045894D03*
X0091921Y0077784D03*
D18*
X0058937Y0081721D03*
X0035315Y0081721D03*
X0047126Y0063217D03*
D19*
X0100276Y0065580D03*
X0100276Y0054556D03*
D20*
X0131969Y0096682D03*
X0135709Y0096682D03*
X0140039Y0096682D03*
X0144370Y0096682D03*
X0148701Y0096682D03*
X0153031Y0096682D03*
X0157362Y0096682D03*
X0161693Y0096682D03*
X0166024Y0096682D03*
D21*
X0172126Y0096682D03*
X0128228Y0113611D03*
D22*
X0128228Y0138020D03*
D23*
X0128228Y0154359D03*
D24*
X0181378Y0156131D03*
D25*
X0115236Y0099438D03*
X0104213Y0099438D03*
D26*
X0102244Y0090776D03*
X0122717Y0078572D03*
X0133740Y0078572D03*
X0152638Y0087233D03*
X0161299Y0091170D03*
X0162874Y0084477D03*
X0161693Y0075422D03*
X0154213Y0075422D03*
X0140039Y0089989D03*
X0153031Y0104556D03*
X0162087Y0104556D03*
X0182559Y0112036D03*
X0204213Y0102981D03*
X0216024Y0095894D03*
X0193189Y0086839D03*
X0182559Y0076209D03*
X0204606Y0065186D03*
X0238465Y0110461D03*
X0166417Y0126997D03*
X0119173Y0111643D03*
X0102244Y0108493D03*
X0086890Y0135658D03*
X0105787Y0149831D03*
X0110906Y0064792D03*
X0082953Y0058493D03*
X0122323Y0041564D03*
M02*
