G75*
%MOIN*%
%OFA0B0*%
%FSLAX25Y25*%
%IPPOS*%
%LPD*%
%AMOC8*
5,1,8,0,0,1.08239X$1,22.5*
%
%ADD10OC8,0.05200*%
%ADD11C,0.06000*%
%ADD12C,0.07400*%
%ADD13OC8,0.05600*%
%ADD14C,0.06496*%
%ADD15OC8,0.06300*%
%ADD16C,0.06300*%
%ADD17C,0.17000*%
%ADD18R,0.07087X0.06299*%
%ADD19R,0.02756X0.04724*%
%ADD20R,0.03937X0.04724*%
%ADD21R,0.03937X0.03150*%
%ADD22R,0.03937X0.11024*%
%ADD23R,0.05118X0.07480*%
%ADD24R,0.06299X0.07874*%
%ADD25C,0.02400*%
%ADD26C,0.01600*%
%ADD27OC8,0.04356*%
%ADD28C,0.01200*%
D10*
X0060669Y0144083D03*
X0080669Y0144083D03*
D11*
X0221614Y0123422D02*
X0221614Y0117422D01*
X0231614Y0117422D02*
X0231614Y0123422D01*
X0241614Y0123422D02*
X0241614Y0117422D01*
X0251614Y0117422D02*
X0251614Y0123422D01*
X0251921Y0101761D02*
X0257921Y0101761D01*
X0257921Y0091761D02*
X0251921Y0091761D01*
X0251921Y0081761D02*
X0257921Y0081761D01*
X0257921Y0071761D02*
X0251921Y0071761D01*
X0251921Y0061761D02*
X0257921Y0061761D01*
X0257921Y0051761D02*
X0251921Y0051761D01*
X0231465Y0066406D02*
X0225465Y0066406D01*
X0225465Y0076406D02*
X0231465Y0076406D01*
X0231465Y0086406D02*
X0225465Y0086406D01*
X0189488Y0044446D02*
X0189488Y0038446D01*
X0179488Y0038446D02*
X0179488Y0044446D01*
X0169488Y0044446D02*
X0169488Y0038446D01*
X0159488Y0038446D02*
X0159488Y0044446D01*
X0149488Y0044446D02*
X0149488Y0038446D01*
D12*
X0069099Y0109396D03*
X0043499Y0109396D03*
X0043499Y0127196D03*
X0069099Y0127196D03*
D13*
X0083740Y0028847D03*
X0083740Y0013847D03*
D14*
X0217106Y0014398D02*
X0223602Y0014398D01*
X0223602Y0053769D02*
X0217106Y0053769D01*
D15*
X0077921Y0077784D03*
X0060598Y0045894D03*
D16*
X0074598Y0045894D03*
X0091921Y0077784D03*
D17*
X0058937Y0081721D03*
X0035315Y0081721D03*
X0047126Y0063217D03*
D18*
X0100276Y0065580D03*
X0100276Y0054556D03*
D19*
X0131969Y0096682D03*
X0135709Y0096682D03*
X0140039Y0096682D03*
X0144370Y0096682D03*
X0148701Y0096682D03*
X0153031Y0096682D03*
X0157362Y0096682D03*
X0161693Y0096682D03*
X0166024Y0096682D03*
D20*
X0172126Y0096682D03*
X0128228Y0113611D03*
D21*
X0128228Y0138020D03*
D22*
X0128228Y0154359D03*
D23*
X0181378Y0156131D03*
D24*
X0115236Y0099438D03*
X0104213Y0099438D03*
D25*
X0102244Y0102587D02*
X0102244Y0108493D01*
X0102244Y0102587D02*
X0102244Y0090776D01*
X0071142Y0066761D02*
X0071142Y0049351D01*
X0074598Y0045894D01*
X0084252Y0036241D01*
X0084252Y0029359D01*
X0083740Y0028847D01*
X0084252Y0029359D02*
X0187677Y0029359D01*
X0189488Y0031170D01*
X0189488Y0041446D01*
X0217992Y0051406D02*
X0220354Y0053769D01*
X0217992Y0051406D02*
X0124291Y0051406D01*
X0110906Y0064792D01*
X0204213Y0064792D01*
X0204606Y0065186D01*
X0071142Y0066761D02*
X0058937Y0078965D01*
X0058937Y0081721D01*
D26*
X0047094Y0007719D02*
X0046421Y0006994D01*
X0266772Y0006994D01*
X0264830Y0009842D01*
X0264830Y0009842D01*
X0263389Y0014513D01*
X0263389Y0019402D01*
X0264830Y0024073D01*
X0264830Y0024073D01*
X0267584Y0028112D01*
X0267584Y0028112D01*
X0267584Y0028112D01*
X0271406Y0031160D01*
X0271406Y0031160D01*
X0275957Y0032946D01*
X0275957Y0032946D01*
X0280832Y0033312D01*
X0280832Y0033312D01*
X0285598Y0032224D01*
X0285598Y0032224D01*
X0289639Y0029891D01*
X0289894Y0132156D01*
X0289832Y0132088D01*
X0289832Y0132088D01*
X0285598Y0129644D01*
X0280832Y0128556D01*
X0280832Y0128556D01*
X0275957Y0128921D01*
X0275957Y0128921D01*
X0271406Y0130707D01*
X0271406Y0130707D01*
X0267584Y0133755D01*
X0267584Y0133755D01*
X0267584Y0133755D01*
X0264830Y0137795D01*
X0264830Y0137795D01*
X0263389Y0142466D01*
X0263389Y0147355D01*
X0264830Y0152026D01*
X0264830Y0152026D01*
X0267041Y0155268D01*
X0185737Y0155268D01*
X0185737Y0152154D01*
X0185614Y0151696D01*
X0185377Y0151285D01*
X0185042Y0150950D01*
X0184632Y0150713D01*
X0184174Y0150591D01*
X0181857Y0150591D01*
X0181857Y0155268D01*
X0180898Y0155268D01*
X0180898Y0150591D01*
X0178582Y0150591D01*
X0178227Y0150686D01*
X0178227Y0131579D01*
X0177861Y0130696D01*
X0177186Y0130021D01*
X0176304Y0129656D01*
X0170232Y0129656D01*
X0170995Y0128893D01*
X0170995Y0125101D01*
X0169617Y0123723D01*
X0169617Y0111787D01*
X0182310Y0099094D01*
X0201625Y0099094D01*
X0201555Y0099164D01*
X0201332Y0099257D01*
X0200488Y0100101D01*
X0200396Y0100324D01*
X0199635Y0101085D01*
X0199635Y0104877D01*
X0202316Y0107559D01*
X0204226Y0107559D01*
X0216214Y0119548D01*
X0216214Y0124496D01*
X0217036Y0126481D01*
X0218555Y0128000D01*
X0219814Y0128521D01*
X0213412Y0128521D01*
X0194214Y0109323D01*
X0193038Y0108836D01*
X0185833Y0108836D01*
X0184455Y0107458D01*
X0180663Y0107458D01*
X0177981Y0110140D01*
X0177981Y0113932D01*
X0180663Y0116614D01*
X0184455Y0116614D01*
X0185833Y0115236D01*
X0191076Y0115236D01*
X0209374Y0133534D01*
X0210274Y0134434D01*
X0211450Y0134921D01*
X0239888Y0134921D01*
X0241065Y0134434D01*
X0243427Y0132072D01*
X0244327Y0131172D01*
X0244814Y0129996D01*
X0244814Y0127859D01*
X0246192Y0126481D01*
X0246614Y0125462D01*
X0247036Y0126481D01*
X0248555Y0128000D01*
X0250540Y0128822D01*
X0252688Y0128822D01*
X0254673Y0128000D01*
X0256192Y0126481D01*
X0257014Y0124496D01*
X0257014Y0116348D01*
X0256192Y0114363D01*
X0254673Y0112844D01*
X0252688Y0112022D01*
X0250540Y0112022D01*
X0248555Y0112844D01*
X0247036Y0114363D01*
X0246614Y0115382D01*
X0246192Y0114363D01*
X0244673Y0112844D01*
X0243043Y0112169D01*
X0243043Y0108565D01*
X0241665Y0107187D01*
X0241665Y0101551D01*
X0247870Y0095346D01*
X0248862Y0096339D01*
X0249881Y0096761D01*
X0248862Y0097183D01*
X0247343Y0098702D01*
X0246521Y0100686D01*
X0246521Y0102835D01*
X0247343Y0104819D01*
X0248862Y0106339D01*
X0250847Y0107161D01*
X0258995Y0107161D01*
X0260980Y0106339D01*
X0262319Y0105000D01*
X0265085Y0105000D01*
X0266261Y0104513D01*
X0267162Y0103613D01*
X0267649Y0102437D01*
X0267649Y0075770D01*
X0267162Y0074594D01*
X0266261Y0073693D01*
X0265085Y0073206D01*
X0263167Y0073206D01*
X0263321Y0072835D01*
X0263321Y0070686D01*
X0262499Y0068702D01*
X0260980Y0067183D01*
X0259961Y0066761D01*
X0260980Y0066339D01*
X0262499Y0064819D01*
X0263321Y0062835D01*
X0263321Y0060686D01*
X0262499Y0058702D01*
X0260980Y0057183D01*
X0259128Y0056416D01*
X0259764Y0056209D01*
X0260437Y0055866D01*
X0261048Y0055422D01*
X0261582Y0054888D01*
X0262027Y0054276D01*
X0262370Y0053603D01*
X0262603Y0052885D01*
X0262721Y0052138D01*
X0262721Y0051961D01*
X0255121Y0051961D01*
X0255121Y0051561D01*
X0262721Y0051561D01*
X0262721Y0051383D01*
X0262603Y0050637D01*
X0262370Y0049918D01*
X0262027Y0049245D01*
X0261582Y0048634D01*
X0261048Y0048099D01*
X0260437Y0047655D01*
X0259764Y0047312D01*
X0259045Y0047079D01*
X0258299Y0046961D01*
X0255121Y0046961D01*
X0255121Y0051561D01*
X0254721Y0051561D01*
X0247121Y0051561D01*
X0247121Y0051383D01*
X0247239Y0050637D01*
X0247473Y0049918D01*
X0247816Y0049245D01*
X0248260Y0048634D01*
X0248794Y0048099D01*
X0249406Y0047655D01*
X0250079Y0047312D01*
X0250797Y0047079D01*
X0251543Y0046961D01*
X0254721Y0046961D01*
X0254721Y0051561D01*
X0254721Y0051961D01*
X0247121Y0051961D01*
X0247121Y0052138D01*
X0247239Y0052885D01*
X0247473Y0053603D01*
X0247816Y0054276D01*
X0248260Y0054888D01*
X0248794Y0055422D01*
X0249406Y0055866D01*
X0250079Y0056209D01*
X0250715Y0056416D01*
X0248862Y0057183D01*
X0247343Y0058702D01*
X0246521Y0060686D01*
X0246521Y0062835D01*
X0247343Y0064819D01*
X0248862Y0066339D01*
X0249881Y0066761D01*
X0248862Y0067183D01*
X0247954Y0068091D01*
X0236612Y0068091D01*
X0236865Y0067480D01*
X0236865Y0065332D01*
X0236042Y0063347D01*
X0234523Y0061828D01*
X0232539Y0061006D01*
X0224390Y0061006D01*
X0222406Y0061828D01*
X0220887Y0063347D01*
X0220065Y0065332D01*
X0220065Y0067480D01*
X0220318Y0068091D01*
X0208175Y0068091D01*
X0209184Y0067082D01*
X0209184Y0063290D01*
X0206503Y0060608D01*
X0202710Y0060608D01*
X0202126Y0061192D01*
X0119597Y0061192D01*
X0125783Y0055006D01*
X0211506Y0055006D01*
X0212318Y0056968D01*
X0213907Y0058557D01*
X0215983Y0059417D01*
X0224726Y0059417D01*
X0226802Y0058557D01*
X0228391Y0056968D01*
X0229250Y0054892D01*
X0229250Y0052645D01*
X0228391Y0050569D01*
X0226802Y0048980D01*
X0224726Y0048120D01*
X0219467Y0048120D01*
X0218708Y0047806D01*
X0193764Y0047806D01*
X0194066Y0047505D01*
X0194888Y0045520D01*
X0194888Y0037372D01*
X0194066Y0035387D01*
X0193088Y0034409D01*
X0193088Y0030454D01*
X0192540Y0029131D01*
X0190729Y0027320D01*
X0189716Y0026307D01*
X0188393Y0025759D01*
X0088006Y0025759D01*
X0085894Y0023647D01*
X0081586Y0023647D01*
X0078540Y0026693D01*
X0078540Y0031001D01*
X0080652Y0033113D01*
X0080652Y0034750D01*
X0075057Y0040344D01*
X0073494Y0040344D01*
X0071455Y0041189D01*
X0069893Y0042751D01*
X0069048Y0044791D01*
X0069048Y0046353D01*
X0068090Y0047312D01*
X0067542Y0048635D01*
X0067542Y0065269D01*
X0061648Y0071163D01*
X0060372Y0070821D01*
X0057502Y0070821D01*
X0054730Y0071564D01*
X0052244Y0072999D01*
X0050215Y0075028D01*
X0048780Y0077514D01*
X0048037Y0080286D01*
X0048037Y0083156D01*
X0048780Y0085928D01*
X0050215Y0088414D01*
X0052244Y0090443D01*
X0054730Y0091878D01*
X0057502Y0092621D01*
X0060372Y0092621D01*
X0063144Y0091878D01*
X0065630Y0090443D01*
X0067659Y0088414D01*
X0069094Y0085928D01*
X0069837Y0083156D01*
X0069837Y0080286D01*
X0069094Y0077514D01*
X0067771Y0075222D01*
X0073181Y0069813D01*
X0074194Y0068800D01*
X0074742Y0067477D01*
X0074742Y0051444D01*
X0075702Y0051444D01*
X0077742Y0050600D01*
X0079303Y0049038D01*
X0080148Y0046998D01*
X0080148Y0045436D01*
X0087304Y0038280D01*
X0087852Y0036957D01*
X0087852Y0032959D01*
X0185888Y0032959D01*
X0185888Y0034409D01*
X0184910Y0035387D01*
X0184143Y0037239D01*
X0183937Y0036603D01*
X0183594Y0035930D01*
X0183149Y0035319D01*
X0182615Y0034784D01*
X0182004Y0034340D01*
X0181331Y0033997D01*
X0180612Y0033764D01*
X0179866Y0033646D01*
X0179688Y0033646D01*
X0179688Y0041246D01*
X0179288Y0041246D01*
X0179288Y0033646D01*
X0179110Y0033646D01*
X0178364Y0033764D01*
X0177646Y0033997D01*
X0176972Y0034340D01*
X0176361Y0034784D01*
X0175827Y0035319D01*
X0175383Y0035930D01*
X0175040Y0036603D01*
X0174833Y0037239D01*
X0174066Y0035387D01*
X0172547Y0033868D01*
X0170562Y0033046D01*
X0168414Y0033046D01*
X0166429Y0033868D01*
X0164910Y0035387D01*
X0164488Y0036406D01*
X0164066Y0035387D01*
X0162547Y0033868D01*
X0160562Y0033046D01*
X0158414Y0033046D01*
X0156429Y0033868D01*
X0154910Y0035387D01*
X0154488Y0036406D01*
X0154066Y0035387D01*
X0152547Y0033868D01*
X0150562Y0033046D01*
X0148414Y0033046D01*
X0146429Y0033868D01*
X0144910Y0035387D01*
X0144088Y0037372D01*
X0144088Y0045520D01*
X0144910Y0047505D01*
X0145212Y0047806D01*
X0123575Y0047806D01*
X0122252Y0048354D01*
X0121239Y0049367D01*
X0110392Y0060214D01*
X0109009Y0060214D01*
X0106844Y0062380D01*
X0106219Y0062380D01*
X0106219Y0061953D01*
X0105854Y0061070D01*
X0105178Y0060395D01*
X0104296Y0060030D01*
X0096255Y0060030D01*
X0095373Y0060395D01*
X0094698Y0061070D01*
X0094332Y0061953D01*
X0094332Y0069207D01*
X0094698Y0070089D01*
X0095373Y0070764D01*
X0096255Y0071129D01*
X0104296Y0071129D01*
X0105178Y0070764D01*
X0105854Y0070089D01*
X0106219Y0069207D01*
X0106219Y0068780D01*
X0108419Y0068780D01*
X0109009Y0069370D01*
X0110464Y0069370D01*
X0107012Y0072822D01*
X0106524Y0073998D01*
X0106524Y0088583D01*
X0104140Y0086198D01*
X0100348Y0086198D01*
X0097666Y0088880D01*
X0097666Y0092673D01*
X0098644Y0093651D01*
X0098644Y0105619D01*
X0097666Y0106597D01*
X0097666Y0110389D01*
X0100348Y0113071D01*
X0104140Y0113071D01*
X0106524Y0110687D01*
X0106524Y0111498D01*
X0086942Y0131080D01*
X0084994Y0131080D01*
X0082312Y0133762D01*
X0082312Y0137555D01*
X0084994Y0140236D01*
X0088786Y0140236D01*
X0091468Y0137555D01*
X0091468Y0135606D01*
X0102587Y0124486D01*
X0102587Y0124611D01*
X0102578Y0125223D01*
X0102587Y0125246D01*
X0102587Y0146557D01*
X0101209Y0147935D01*
X0101209Y0151728D01*
X0103891Y0154409D01*
X0107684Y0154409D01*
X0108427Y0153666D01*
X0108427Y0155268D01*
X0046055Y0155268D01*
X0047094Y0154149D01*
X0047094Y0154149D01*
X0049215Y0149744D01*
X0049215Y0149744D01*
X0049943Y0144910D01*
X0049215Y0140076D01*
X0049215Y0140076D01*
X0047094Y0135672D01*
X0047094Y0135672D01*
X0044840Y0133243D01*
X0046955Y0132367D01*
X0048671Y0130651D01*
X0049599Y0128409D01*
X0049599Y0125983D01*
X0048671Y0123741D01*
X0046955Y0122025D01*
X0044713Y0121096D01*
X0042286Y0121096D01*
X0040044Y0122025D01*
X0038328Y0123741D01*
X0037399Y0125983D01*
X0037399Y0128409D01*
X0037741Y0129234D01*
X0034769Y0128556D01*
X0034769Y0128556D01*
X0029894Y0128921D01*
X0029894Y0128921D01*
X0025343Y0130707D01*
X0025343Y0130707D01*
X0023903Y0131856D01*
X0023648Y0029809D01*
X0025343Y0031160D01*
X0025343Y0031160D01*
X0029894Y0032946D01*
X0029894Y0032946D01*
X0034769Y0033312D01*
X0034769Y0033312D01*
X0039535Y0032224D01*
X0039535Y0032224D01*
X0043769Y0029780D01*
X0043769Y0029780D01*
X0047094Y0026196D01*
X0047094Y0026196D01*
X0049215Y0021791D01*
X0049215Y0021791D01*
X0049943Y0016957D01*
X0049215Y0012123D01*
X0049215Y0012123D01*
X0047094Y0007719D01*
X0047094Y0007719D01*
X0047512Y0008588D02*
X0265685Y0008588D01*
X0264724Y0010186D02*
X0227378Y0010186D01*
X0226802Y0009610D02*
X0224726Y0008750D01*
X0215983Y0008750D01*
X0213907Y0009610D01*
X0212318Y0011199D01*
X0211458Y0013275D01*
X0211458Y0015522D01*
X0212318Y0017598D01*
X0213907Y0019187D01*
X0215983Y0020046D01*
X0224726Y0020046D01*
X0226802Y0019187D01*
X0228391Y0017598D01*
X0229250Y0015522D01*
X0229250Y0013275D01*
X0228391Y0011199D01*
X0226802Y0009610D01*
X0228633Y0011785D02*
X0264231Y0011785D01*
X0263738Y0013383D02*
X0229250Y0013383D01*
X0229250Y0014982D02*
X0263389Y0014982D01*
X0263389Y0016580D02*
X0228812Y0016580D01*
X0227809Y0018179D02*
X0263389Y0018179D01*
X0263505Y0019777D02*
X0225376Y0019777D01*
X0215333Y0019777D02*
X0049518Y0019777D01*
X0049759Y0018179D02*
X0080718Y0018179D01*
X0081586Y0019047D02*
X0078540Y0016001D01*
X0078540Y0011693D01*
X0081586Y0008647D01*
X0085894Y0008647D01*
X0088940Y0011693D01*
X0088940Y0016001D01*
X0085894Y0019047D01*
X0081586Y0019047D01*
X0079119Y0016580D02*
X0049886Y0016580D01*
X0049645Y0014982D02*
X0078540Y0014982D01*
X0078540Y0013383D02*
X0049405Y0013383D01*
X0049052Y0011785D02*
X0078540Y0011785D01*
X0080047Y0010186D02*
X0048282Y0010186D01*
X0049277Y0021376D02*
X0263998Y0021376D01*
X0264491Y0022974D02*
X0048645Y0022974D01*
X0047875Y0024573D02*
X0080661Y0024573D01*
X0079062Y0026171D02*
X0047105Y0026171D01*
X0045633Y0027770D02*
X0078540Y0027770D01*
X0078540Y0029368D02*
X0044150Y0029368D01*
X0041712Y0030967D02*
X0078540Y0030967D01*
X0080104Y0032565D02*
X0038038Y0032565D01*
X0028924Y0032565D02*
X0023655Y0032565D01*
X0023651Y0030967D02*
X0025101Y0030967D01*
X0023659Y0034164D02*
X0080652Y0034164D01*
X0079639Y0035762D02*
X0023663Y0035762D01*
X0023667Y0037361D02*
X0078041Y0037361D01*
X0076442Y0038959D02*
X0023671Y0038959D01*
X0023675Y0040558D02*
X0072979Y0040558D01*
X0070488Y0042156D02*
X0063861Y0042156D01*
X0062649Y0040944D02*
X0060598Y0040944D01*
X0060598Y0045894D01*
X0060598Y0045894D01*
X0055648Y0045894D01*
X0055648Y0043844D01*
X0058548Y0040944D01*
X0060598Y0040944D01*
X0060598Y0045894D01*
X0060598Y0045895D01*
X0060598Y0050844D01*
X0058548Y0050844D01*
X0055648Y0047945D01*
X0055648Y0045895D01*
X0060598Y0045895D01*
X0060598Y0045895D01*
X0060598Y0050844D01*
X0062649Y0050844D01*
X0065548Y0047945D01*
X0065548Y0045895D01*
X0060599Y0045895D01*
X0060599Y0045894D01*
X0065548Y0045894D01*
X0065548Y0043844D01*
X0062649Y0040944D01*
X0060598Y0042156D02*
X0060598Y0042156D01*
X0060598Y0043755D02*
X0060598Y0043755D01*
X0060598Y0045354D02*
X0060598Y0045354D01*
X0060598Y0046952D02*
X0060598Y0046952D01*
X0060598Y0048551D02*
X0060598Y0048551D01*
X0060598Y0050149D02*
X0060598Y0050149D01*
X0057853Y0050149D02*
X0023699Y0050149D01*
X0023695Y0048551D02*
X0056254Y0048551D01*
X0055648Y0046952D02*
X0023691Y0046952D01*
X0023687Y0045354D02*
X0055648Y0045354D01*
X0055738Y0043755D02*
X0023683Y0043755D01*
X0023679Y0042156D02*
X0057336Y0042156D01*
X0065459Y0043755D02*
X0069477Y0043755D01*
X0069048Y0045354D02*
X0065548Y0045354D01*
X0065548Y0046952D02*
X0068450Y0046952D01*
X0067577Y0048551D02*
X0064943Y0048551D01*
X0063344Y0050149D02*
X0067542Y0050149D01*
X0067542Y0051748D02*
X0023703Y0051748D01*
X0023707Y0053346D02*
X0042423Y0053346D01*
X0042919Y0053060D02*
X0045691Y0052317D01*
X0048561Y0052317D01*
X0051333Y0053060D01*
X0053819Y0054495D01*
X0055848Y0056525D01*
X0057283Y0059010D01*
X0058026Y0061782D01*
X0058026Y0064652D01*
X0057283Y0067425D01*
X0055848Y0069910D01*
X0053819Y0071939D01*
X0051333Y0073374D01*
X0048561Y0074117D01*
X0045691Y0074117D01*
X0042919Y0073374D01*
X0040433Y0071939D01*
X0038404Y0069910D01*
X0036969Y0067425D01*
X0036226Y0064652D01*
X0036226Y0061782D01*
X0036969Y0059010D01*
X0038404Y0056525D01*
X0040433Y0054495D01*
X0042919Y0053060D01*
X0039984Y0054945D02*
X0023711Y0054945D01*
X0023715Y0056543D02*
X0038393Y0056543D01*
X0037470Y0058142D02*
X0023719Y0058142D01*
X0023723Y0059740D02*
X0036773Y0059740D01*
X0036345Y0061339D02*
X0023727Y0061339D01*
X0023731Y0062937D02*
X0036226Y0062937D01*
X0036226Y0064536D02*
X0023735Y0064536D01*
X0023739Y0066134D02*
X0036623Y0066134D01*
X0037147Y0067733D02*
X0023743Y0067733D01*
X0023747Y0069331D02*
X0038070Y0069331D01*
X0039423Y0070930D02*
X0023751Y0070930D01*
X0023755Y0072528D02*
X0030665Y0072528D01*
X0030325Y0072692D02*
X0031367Y0072190D01*
X0032459Y0071808D01*
X0033587Y0071551D01*
X0034515Y0071446D01*
X0034515Y0080921D01*
X0036115Y0080921D01*
X0036115Y0071446D01*
X0037043Y0071551D01*
X0038171Y0071808D01*
X0039263Y0072190D01*
X0040305Y0072692D01*
X0041285Y0073308D01*
X0042189Y0074029D01*
X0043007Y0074847D01*
X0043728Y0075752D01*
X0044344Y0076731D01*
X0044846Y0077773D01*
X0045228Y0078865D01*
X0045485Y0079993D01*
X0045590Y0080921D01*
X0036115Y0080921D01*
X0036115Y0082521D01*
X0045590Y0082521D01*
X0045485Y0083449D01*
X0045228Y0084577D01*
X0044846Y0085669D01*
X0044344Y0086711D01*
X0043728Y0087691D01*
X0043007Y0088595D01*
X0042189Y0089413D01*
X0041285Y0090135D01*
X0040305Y0090750D01*
X0039263Y0091252D01*
X0038171Y0091634D01*
X0037043Y0091892D01*
X0036115Y0091996D01*
X0036115Y0082521D01*
X0034515Y0082521D01*
X0034515Y0080921D01*
X0025040Y0080921D01*
X0025144Y0079993D01*
X0025402Y0078865D01*
X0025784Y0077773D01*
X0026286Y0076731D01*
X0026901Y0075752D01*
X0027623Y0074847D01*
X0028441Y0074029D01*
X0029345Y0073308D01*
X0030325Y0072692D01*
X0028343Y0074127D02*
X0023759Y0074127D01*
X0023763Y0075725D02*
X0026922Y0075725D01*
X0026001Y0077324D02*
X0023767Y0077324D01*
X0023771Y0078922D02*
X0025389Y0078922D01*
X0025085Y0080521D02*
X0023775Y0080521D01*
X0023779Y0082119D02*
X0034515Y0082119D01*
X0034515Y0082521D02*
X0025040Y0082521D01*
X0025144Y0083449D01*
X0025402Y0084577D01*
X0025784Y0085669D01*
X0026286Y0086711D01*
X0026901Y0087691D01*
X0027623Y0088595D01*
X0028441Y0089413D01*
X0029345Y0090135D01*
X0030325Y0090750D01*
X0031367Y0091252D01*
X0032459Y0091634D01*
X0033587Y0091892D01*
X0034515Y0091996D01*
X0034515Y0082521D01*
X0034515Y0083718D02*
X0036115Y0083718D01*
X0036115Y0085316D02*
X0034515Y0085316D01*
X0034515Y0086915D02*
X0036115Y0086915D01*
X0036115Y0088513D02*
X0034515Y0088513D01*
X0034515Y0090112D02*
X0036115Y0090112D01*
X0036115Y0091710D02*
X0034515Y0091710D01*
X0032792Y0091710D02*
X0023803Y0091710D01*
X0023799Y0090112D02*
X0029316Y0090112D01*
X0027557Y0088513D02*
X0023795Y0088513D01*
X0023791Y0086915D02*
X0026414Y0086915D01*
X0025661Y0085316D02*
X0023787Y0085316D01*
X0023783Y0083718D02*
X0025206Y0083718D01*
X0034515Y0080521D02*
X0036115Y0080521D01*
X0036115Y0082119D02*
X0048037Y0082119D01*
X0048037Y0080521D02*
X0045545Y0080521D01*
X0045241Y0078922D02*
X0048402Y0078922D01*
X0048890Y0077324D02*
X0044629Y0077324D01*
X0043707Y0075725D02*
X0049813Y0075725D01*
X0051117Y0074127D02*
X0042287Y0074127D01*
X0041453Y0072528D02*
X0039964Y0072528D01*
X0036115Y0072528D02*
X0034515Y0072528D01*
X0034515Y0074127D02*
X0036115Y0074127D01*
X0036115Y0075725D02*
X0034515Y0075725D01*
X0034515Y0077324D02*
X0036115Y0077324D01*
X0036115Y0078922D02*
X0034515Y0078922D01*
X0045424Y0083718D02*
X0048187Y0083718D01*
X0048616Y0085316D02*
X0044969Y0085316D01*
X0044216Y0086915D02*
X0049349Y0086915D01*
X0050314Y0088513D02*
X0043073Y0088513D01*
X0041313Y0090112D02*
X0051913Y0090112D01*
X0054439Y0091710D02*
X0037838Y0091710D01*
X0023807Y0093309D02*
X0098302Y0093309D01*
X0098644Y0094907D02*
X0023811Y0094907D01*
X0023815Y0096506D02*
X0098644Y0096506D01*
X0098644Y0098104D02*
X0023819Y0098104D01*
X0023823Y0099703D02*
X0098644Y0099703D01*
X0098644Y0101301D02*
X0023827Y0101301D01*
X0023831Y0102900D02*
X0098644Y0102900D01*
X0098644Y0104498D02*
X0071602Y0104498D01*
X0071982Y0104692D02*
X0072682Y0105201D01*
X0073294Y0105813D01*
X0073803Y0106513D01*
X0074196Y0107285D01*
X0074464Y0108108D01*
X0074599Y0108963D01*
X0074599Y0109196D01*
X0069299Y0109196D01*
X0069299Y0103896D01*
X0069532Y0103896D01*
X0070387Y0104031D01*
X0071210Y0104299D01*
X0071982Y0104692D01*
X0073501Y0106097D02*
X0098166Y0106097D01*
X0097666Y0107695D02*
X0074330Y0107695D01*
X0074599Y0109596D02*
X0074599Y0109829D01*
X0074464Y0110684D01*
X0074196Y0111507D01*
X0073803Y0112279D01*
X0073294Y0112979D01*
X0072682Y0113591D01*
X0071982Y0114100D01*
X0071210Y0114493D01*
X0070387Y0114761D01*
X0069532Y0114896D01*
X0069299Y0114896D01*
X0069299Y0109596D01*
X0068899Y0109596D01*
X0068899Y0109196D01*
X0063599Y0109196D01*
X0063599Y0108963D01*
X0063735Y0108108D01*
X0064002Y0107285D01*
X0064395Y0106513D01*
X0064904Y0105813D01*
X0065516Y0105201D01*
X0066217Y0104692D01*
X0066988Y0104299D01*
X0067811Y0104031D01*
X0068666Y0103896D01*
X0068899Y0103896D01*
X0068899Y0109196D01*
X0069299Y0109196D01*
X0069299Y0109596D01*
X0074599Y0109596D01*
X0074396Y0110892D02*
X0098169Y0110892D01*
X0097666Y0109294D02*
X0069299Y0109294D01*
X0068899Y0109294D02*
X0049599Y0109294D01*
X0049599Y0108183D02*
X0048671Y0105941D01*
X0046955Y0104225D01*
X0044713Y0103296D01*
X0042286Y0103296D01*
X0040044Y0104225D01*
X0038328Y0105941D01*
X0037399Y0108183D01*
X0037399Y0110609D01*
X0038328Y0112851D01*
X0040044Y0114567D01*
X0042286Y0115496D01*
X0044713Y0115496D01*
X0046955Y0114567D01*
X0048671Y0112851D01*
X0049599Y0110609D01*
X0049599Y0108183D01*
X0049397Y0107695D02*
X0063869Y0107695D01*
X0064698Y0106097D02*
X0048735Y0106097D01*
X0047228Y0104498D02*
X0066597Y0104498D01*
X0068899Y0104498D02*
X0069299Y0104498D01*
X0069299Y0106097D02*
X0068899Y0106097D01*
X0068899Y0107695D02*
X0069299Y0107695D01*
X0068899Y0109596D02*
X0063599Y0109596D01*
X0063599Y0109829D01*
X0063735Y0110684D01*
X0064002Y0111507D01*
X0064395Y0112279D01*
X0064904Y0112979D01*
X0065516Y0113591D01*
X0066217Y0114100D01*
X0066988Y0114493D01*
X0067811Y0114761D01*
X0068666Y0114896D01*
X0068899Y0114896D01*
X0068899Y0109596D01*
X0068899Y0110892D02*
X0069299Y0110892D01*
X0069299Y0112491D02*
X0068899Y0112491D01*
X0068899Y0114089D02*
X0069299Y0114089D01*
X0071996Y0114089D02*
X0103933Y0114089D01*
X0104720Y0112491D02*
X0105532Y0112491D01*
X0106319Y0110892D02*
X0106524Y0110892D01*
X0109724Y0112824D02*
X0086890Y0135658D01*
X0091468Y0136469D02*
X0102587Y0136469D01*
X0102587Y0138067D02*
X0090955Y0138067D01*
X0089357Y0139666D02*
X0102587Y0139666D01*
X0102587Y0141264D02*
X0084921Y0141264D01*
X0085669Y0142012D02*
X0082740Y0139083D01*
X0078598Y0139083D01*
X0075669Y0142012D01*
X0075669Y0146155D01*
X0078598Y0149083D01*
X0082740Y0149083D01*
X0085669Y0146155D01*
X0085669Y0142012D01*
X0085669Y0142863D02*
X0102587Y0142863D01*
X0102587Y0144461D02*
X0085669Y0144461D01*
X0085669Y0146060D02*
X0102587Y0146060D01*
X0101486Y0147658D02*
X0084166Y0147658D01*
X0077173Y0147658D02*
X0064166Y0147658D01*
X0062740Y0149083D02*
X0058598Y0149083D01*
X0055669Y0146155D01*
X0055669Y0142012D01*
X0058598Y0139083D01*
X0062740Y0139083D01*
X0065669Y0142012D01*
X0065669Y0146155D01*
X0062740Y0149083D01*
X0065669Y0146060D02*
X0075669Y0146060D01*
X0075669Y0144461D02*
X0065669Y0144461D01*
X0065669Y0142863D02*
X0075669Y0142863D01*
X0076418Y0141264D02*
X0064921Y0141264D01*
X0063323Y0139666D02*
X0078016Y0139666D01*
X0082824Y0138067D02*
X0048247Y0138067D01*
X0047477Y0136469D02*
X0082312Y0136469D01*
X0082312Y0134870D02*
X0046350Y0134870D01*
X0044867Y0133272D02*
X0067827Y0133272D01*
X0067886Y0133296D02*
X0065644Y0132367D01*
X0063928Y0130651D01*
X0062999Y0128409D01*
X0062999Y0125983D01*
X0063928Y0123741D01*
X0065644Y0122025D01*
X0067886Y0121096D01*
X0070313Y0121096D01*
X0072555Y0122025D01*
X0074271Y0123741D01*
X0075199Y0125983D01*
X0075199Y0128409D01*
X0074271Y0130651D01*
X0072555Y0132367D01*
X0070313Y0133296D01*
X0067886Y0133296D01*
X0070372Y0133272D02*
X0082802Y0133272D01*
X0084401Y0131673D02*
X0073249Y0131673D01*
X0074509Y0130075D02*
X0087948Y0130075D01*
X0089546Y0128476D02*
X0075172Y0128476D01*
X0075199Y0126878D02*
X0091145Y0126878D01*
X0092743Y0125279D02*
X0074908Y0125279D01*
X0074210Y0123681D02*
X0094342Y0123681D01*
X0095940Y0122082D02*
X0072612Y0122082D01*
X0065587Y0122082D02*
X0047012Y0122082D01*
X0048610Y0123681D02*
X0063988Y0123681D01*
X0063291Y0125279D02*
X0049308Y0125279D01*
X0049599Y0126878D02*
X0062999Y0126878D01*
X0063027Y0128476D02*
X0049572Y0128476D01*
X0048909Y0130075D02*
X0063689Y0130075D01*
X0064950Y0131673D02*
X0047649Y0131673D01*
X0049017Y0139666D02*
X0058016Y0139666D01*
X0056418Y0141264D02*
X0049394Y0141264D01*
X0049635Y0142863D02*
X0055669Y0142863D01*
X0055669Y0144461D02*
X0049876Y0144461D01*
X0049770Y0146060D02*
X0055669Y0146060D01*
X0057173Y0147658D02*
X0049529Y0147658D01*
X0049288Y0149257D02*
X0101209Y0149257D01*
X0101209Y0150855D02*
X0048680Y0150855D01*
X0047910Y0152454D02*
X0101935Y0152454D01*
X0103534Y0154052D02*
X0047140Y0154052D01*
X0024132Y0131673D02*
X0023902Y0131673D01*
X0023898Y0130075D02*
X0026956Y0130075D01*
X0023894Y0128476D02*
X0037427Y0128476D01*
X0037399Y0126878D02*
X0023890Y0126878D01*
X0023886Y0125279D02*
X0037691Y0125279D01*
X0038388Y0123681D02*
X0023882Y0123681D01*
X0023878Y0122082D02*
X0039987Y0122082D01*
X0039566Y0114089D02*
X0023859Y0114089D01*
X0023855Y0112491D02*
X0038179Y0112491D01*
X0037516Y0110892D02*
X0023851Y0110892D01*
X0023847Y0109294D02*
X0037399Y0109294D01*
X0037601Y0107695D02*
X0023843Y0107695D01*
X0023839Y0106097D02*
X0038263Y0106097D01*
X0039770Y0104498D02*
X0023835Y0104498D01*
X0023863Y0115688D02*
X0102335Y0115688D01*
X0100736Y0117287D02*
X0023867Y0117287D01*
X0023871Y0118885D02*
X0099138Y0118885D01*
X0097539Y0120484D02*
X0023874Y0120484D01*
X0047432Y0114089D02*
X0066202Y0114089D01*
X0064549Y0112491D02*
X0048820Y0112491D01*
X0049482Y0110892D02*
X0063802Y0110892D01*
X0073649Y0112491D02*
X0099768Y0112491D01*
X0109724Y0112824D02*
X0109724Y0074635D01*
X0113268Y0071091D01*
X0108904Y0070930D02*
X0104778Y0070930D01*
X0106167Y0069331D02*
X0108970Y0069331D01*
X0107305Y0072528D02*
X0093735Y0072528D01*
X0093025Y0072234D02*
X0095065Y0073079D01*
X0096626Y0074640D01*
X0097471Y0076680D01*
X0097471Y0078888D01*
X0096626Y0080928D01*
X0095065Y0082489D01*
X0093025Y0083334D01*
X0090817Y0083334D01*
X0088777Y0082489D01*
X0087216Y0080928D01*
X0086371Y0078888D01*
X0086371Y0076680D01*
X0087216Y0074640D01*
X0088777Y0073079D01*
X0090817Y0072234D01*
X0093025Y0072234D01*
X0090108Y0072528D02*
X0070465Y0072528D01*
X0068867Y0074127D02*
X0074578Y0074127D01*
X0075871Y0072834D02*
X0072971Y0075734D01*
X0072971Y0077784D01*
X0077921Y0077784D01*
X0077921Y0077784D01*
X0077921Y0072834D01*
X0075871Y0072834D01*
X0077921Y0072834D02*
X0079972Y0072834D01*
X0082871Y0075734D01*
X0082871Y0077784D01*
X0077921Y0077784D01*
X0077921Y0077784D01*
X0077921Y0072834D01*
X0077921Y0074127D02*
X0077921Y0074127D01*
X0077921Y0075725D02*
X0077921Y0075725D01*
X0077921Y0077324D02*
X0077921Y0077324D01*
X0077921Y0077784D02*
X0077921Y0077784D01*
X0072971Y0077784D01*
X0072971Y0079835D01*
X0075871Y0082734D01*
X0077921Y0082734D01*
X0077921Y0077784D01*
X0077921Y0077784D01*
X0082871Y0077784D01*
X0082871Y0079835D01*
X0079972Y0082734D01*
X0077921Y0082734D01*
X0077921Y0077784D01*
X0077921Y0078922D02*
X0077921Y0078922D01*
X0077921Y0080521D02*
X0077921Y0080521D01*
X0077921Y0082119D02*
X0077921Y0082119D01*
X0075256Y0082119D02*
X0069837Y0082119D01*
X0069837Y0080521D02*
X0073657Y0080521D01*
X0072971Y0078922D02*
X0069472Y0078922D01*
X0068984Y0077324D02*
X0072971Y0077324D01*
X0072980Y0075725D02*
X0068061Y0075725D01*
X0072064Y0070930D02*
X0095773Y0070930D01*
X0094384Y0069331D02*
X0073662Y0069331D01*
X0074636Y0067733D02*
X0094332Y0067733D01*
X0094332Y0066134D02*
X0074742Y0066134D01*
X0074742Y0064536D02*
X0094332Y0064536D01*
X0094332Y0062937D02*
X0074742Y0062937D01*
X0074742Y0061339D02*
X0094587Y0061339D01*
X0095627Y0059146D02*
X0095292Y0058811D01*
X0095055Y0058400D01*
X0094932Y0057942D01*
X0094932Y0055331D01*
X0099501Y0055331D01*
X0099501Y0059505D01*
X0096495Y0059505D01*
X0096037Y0059383D01*
X0095627Y0059146D01*
X0094986Y0058142D02*
X0074742Y0058142D01*
X0074742Y0059740D02*
X0110866Y0059740D01*
X0112465Y0058142D02*
X0105566Y0058142D01*
X0105619Y0057942D02*
X0105496Y0058400D01*
X0105259Y0058811D01*
X0104924Y0059146D01*
X0104514Y0059383D01*
X0104056Y0059505D01*
X0101050Y0059505D01*
X0101050Y0055331D01*
X0099501Y0055331D01*
X0099501Y0053781D01*
X0101050Y0053781D01*
X0101050Y0049606D01*
X0104056Y0049606D01*
X0104514Y0049729D01*
X0104924Y0049966D01*
X0105259Y0050301D01*
X0105496Y0050712D01*
X0105619Y0051169D01*
X0105619Y0053781D01*
X0101050Y0053781D01*
X0101050Y0055331D01*
X0105619Y0055331D01*
X0105619Y0057942D01*
X0105619Y0056543D02*
X0114063Y0056543D01*
X0115662Y0054945D02*
X0101050Y0054945D01*
X0099501Y0054945D02*
X0074742Y0054945D01*
X0074742Y0056543D02*
X0094932Y0056543D01*
X0094932Y0053781D02*
X0094932Y0051169D01*
X0095055Y0050712D01*
X0095292Y0050301D01*
X0095627Y0049966D01*
X0096037Y0049729D01*
X0096495Y0049606D01*
X0099501Y0049606D01*
X0099501Y0053781D01*
X0094932Y0053781D01*
X0094932Y0053346D02*
X0074742Y0053346D01*
X0074742Y0051748D02*
X0094932Y0051748D01*
X0095444Y0050149D02*
X0078193Y0050149D01*
X0079506Y0048551D02*
X0122056Y0048551D01*
X0120457Y0050149D02*
X0105107Y0050149D01*
X0105619Y0051748D02*
X0118859Y0051748D01*
X0117260Y0053346D02*
X0105619Y0053346D01*
X0101050Y0053346D02*
X0099501Y0053346D01*
X0099501Y0051748D02*
X0101050Y0051748D01*
X0101050Y0050149D02*
X0099501Y0050149D01*
X0099501Y0056543D02*
X0101050Y0056543D01*
X0101050Y0058142D02*
X0099501Y0058142D01*
X0105965Y0061339D02*
X0107885Y0061339D01*
X0110906Y0064792D02*
X0110118Y0065580D01*
X0100276Y0065580D01*
X0096113Y0074127D02*
X0106524Y0074127D01*
X0106524Y0075725D02*
X0097076Y0075725D01*
X0097471Y0077324D02*
X0106524Y0077324D01*
X0106524Y0078922D02*
X0097457Y0078922D01*
X0096795Y0080521D02*
X0106524Y0080521D01*
X0106524Y0082119D02*
X0095435Y0082119D01*
X0099631Y0086915D02*
X0068525Y0086915D01*
X0069258Y0085316D02*
X0106524Y0085316D01*
X0106524Y0083718D02*
X0069687Y0083718D01*
X0067560Y0088513D02*
X0098033Y0088513D01*
X0097666Y0090112D02*
X0065961Y0090112D01*
X0063435Y0091710D02*
X0097666Y0091710D01*
X0104857Y0086915D02*
X0106524Y0086915D01*
X0106524Y0088513D02*
X0106455Y0088513D01*
X0088407Y0082119D02*
X0080587Y0082119D01*
X0082185Y0080521D02*
X0087047Y0080521D01*
X0086385Y0078922D02*
X0082871Y0078922D01*
X0082871Y0077324D02*
X0086371Y0077324D01*
X0086767Y0075725D02*
X0082863Y0075725D01*
X0081264Y0074127D02*
X0087730Y0074127D01*
X0067542Y0064536D02*
X0058026Y0064536D01*
X0058026Y0062937D02*
X0067542Y0062937D01*
X0067542Y0061339D02*
X0057907Y0061339D01*
X0057479Y0059740D02*
X0067542Y0059740D01*
X0067542Y0058142D02*
X0056782Y0058142D01*
X0055859Y0056543D02*
X0067542Y0056543D01*
X0067542Y0054945D02*
X0054268Y0054945D01*
X0051828Y0053346D02*
X0067542Y0053346D01*
X0080148Y0046952D02*
X0144681Y0046952D01*
X0144088Y0045354D02*
X0125007Y0045354D01*
X0124219Y0046142D02*
X0126901Y0043460D01*
X0126901Y0039668D01*
X0124219Y0036986D01*
X0120427Y0036986D01*
X0117745Y0039668D01*
X0117745Y0043460D01*
X0120427Y0046142D01*
X0124219Y0046142D01*
X0126606Y0043755D02*
X0144088Y0043755D01*
X0144088Y0042156D02*
X0126901Y0042156D01*
X0126901Y0040558D02*
X0144088Y0040558D01*
X0144088Y0038959D02*
X0126193Y0038959D01*
X0124594Y0037361D02*
X0144093Y0037361D01*
X0144755Y0035762D02*
X0087852Y0035762D01*
X0087852Y0034164D02*
X0146133Y0034164D01*
X0152843Y0034164D02*
X0156133Y0034164D01*
X0154755Y0035762D02*
X0154222Y0035762D01*
X0162843Y0034164D02*
X0166133Y0034164D01*
X0164755Y0035762D02*
X0164222Y0035762D01*
X0172843Y0034164D02*
X0177319Y0034164D01*
X0179288Y0034164D02*
X0179688Y0034164D01*
X0179688Y0035762D02*
X0179288Y0035762D01*
X0179288Y0037361D02*
X0179688Y0037361D01*
X0179688Y0038959D02*
X0179288Y0038959D01*
X0179288Y0040558D02*
X0179688Y0040558D01*
X0183472Y0035762D02*
X0184755Y0035762D01*
X0185888Y0034164D02*
X0181658Y0034164D01*
X0175505Y0035762D02*
X0174222Y0035762D01*
X0189389Y0026171D02*
X0266261Y0026171D01*
X0265171Y0024573D02*
X0086820Y0024573D01*
X0086762Y0018179D02*
X0212899Y0018179D01*
X0211897Y0016580D02*
X0088361Y0016580D01*
X0088940Y0014982D02*
X0211458Y0014982D01*
X0211458Y0013383D02*
X0088940Y0013383D01*
X0088940Y0011785D02*
X0212076Y0011785D01*
X0213331Y0010186D02*
X0087433Y0010186D01*
X0087685Y0037361D02*
X0120051Y0037361D01*
X0118453Y0038959D02*
X0086625Y0038959D01*
X0085026Y0040558D02*
X0117745Y0040558D01*
X0117745Y0042156D02*
X0083428Y0042156D01*
X0081829Y0043755D02*
X0118040Y0043755D01*
X0119638Y0045354D02*
X0080231Y0045354D01*
X0066677Y0066134D02*
X0057629Y0066134D01*
X0057105Y0067733D02*
X0065079Y0067733D01*
X0063480Y0069331D02*
X0056182Y0069331D01*
X0057097Y0070930D02*
X0054829Y0070930D01*
X0053060Y0072528D02*
X0052799Y0072528D01*
X0060777Y0070930D02*
X0061881Y0070930D01*
X0121049Y0059740D02*
X0246913Y0059740D01*
X0246521Y0061339D02*
X0233341Y0061339D01*
X0235632Y0062937D02*
X0246564Y0062937D01*
X0247226Y0064536D02*
X0236535Y0064536D01*
X0236865Y0066134D02*
X0248658Y0066134D01*
X0248312Y0067733D02*
X0236760Y0067733D01*
X0223588Y0061339D02*
X0207233Y0061339D01*
X0208832Y0062937D02*
X0221297Y0062937D01*
X0220394Y0064536D02*
X0209184Y0064536D01*
X0209184Y0066134D02*
X0220065Y0066134D01*
X0220169Y0067733D02*
X0208534Y0067733D01*
X0202120Y0073635D02*
X0199427Y0070942D01*
X0163687Y0070942D01*
X0166271Y0073526D01*
X0166271Y0077318D01*
X0163690Y0079899D01*
X0164770Y0079899D01*
X0167452Y0082581D01*
X0167452Y0084812D01*
X0168567Y0085927D01*
X0169024Y0087030D01*
X0169024Y0092548D01*
X0169244Y0092768D01*
X0169463Y0092642D01*
X0169920Y0092520D01*
X0171942Y0092520D01*
X0171942Y0096498D01*
X0172310Y0096498D01*
X0172310Y0092520D01*
X0174331Y0092520D01*
X0174789Y0092642D01*
X0175200Y0092879D01*
X0175535Y0093214D01*
X0175772Y0093625D01*
X0175894Y0094083D01*
X0175894Y0096459D01*
X0179172Y0093182D01*
X0180348Y0092694D01*
X0212749Y0092694D01*
X0214127Y0091317D01*
X0215582Y0091317D01*
X0214304Y0090039D01*
X0196463Y0090039D01*
X0195085Y0091417D01*
X0191293Y0091417D01*
X0188611Y0088736D01*
X0188611Y0084943D01*
X0191293Y0082261D01*
X0195085Y0082261D01*
X0196463Y0083639D01*
X0216266Y0083639D01*
X0217443Y0084127D01*
X0220065Y0086749D01*
X0220065Y0085332D01*
X0220887Y0083347D01*
X0222406Y0081828D01*
X0223425Y0081406D01*
X0222406Y0080984D01*
X0220887Y0079465D01*
X0220065Y0077480D01*
X0220065Y0075332D01*
X0220579Y0074091D01*
X0203222Y0074091D01*
X0202120Y0073635D01*
X0201013Y0072528D02*
X0165273Y0072528D01*
X0166271Y0074127D02*
X0220564Y0074127D01*
X0220065Y0075725D02*
X0166271Y0075725D01*
X0166265Y0077324D02*
X0220065Y0077324D01*
X0220662Y0078922D02*
X0164667Y0078922D01*
X0165392Y0080521D02*
X0221942Y0080521D01*
X0222115Y0082119D02*
X0166990Y0082119D01*
X0167452Y0083718D02*
X0189836Y0083718D01*
X0188611Y0085316D02*
X0167956Y0085316D01*
X0168976Y0086915D02*
X0188611Y0086915D01*
X0188611Y0088513D02*
X0169024Y0088513D01*
X0169024Y0090112D02*
X0189987Y0090112D01*
X0193189Y0086839D02*
X0215630Y0086839D01*
X0222717Y0093926D01*
X0234528Y0093926D01*
X0246732Y0081721D01*
X0254882Y0081721D01*
X0254921Y0081761D01*
X0249881Y0086761D02*
X0248862Y0086339D01*
X0247751Y0085228D01*
X0236340Y0096639D01*
X0235164Y0097126D01*
X0222080Y0097126D01*
X0220904Y0096639D01*
X0220602Y0096336D01*
X0220602Y0097791D01*
X0217920Y0100472D01*
X0214127Y0100472D01*
X0212749Y0099094D01*
X0206800Y0099094D01*
X0208791Y0101085D01*
X0208791Y0103073D01*
X0218560Y0112842D01*
X0220540Y0112022D01*
X0222688Y0112022D01*
X0224673Y0112844D01*
X0226192Y0114363D01*
X0226959Y0116215D01*
X0227166Y0115579D01*
X0227509Y0114906D01*
X0227953Y0114295D01*
X0228487Y0113761D01*
X0229098Y0113317D01*
X0229772Y0112974D01*
X0230490Y0112740D01*
X0231236Y0112622D01*
X0231414Y0112622D01*
X0231414Y0120222D01*
X0231814Y0120222D01*
X0231814Y0112622D01*
X0231992Y0112622D01*
X0232738Y0112740D01*
X0233457Y0112974D01*
X0234130Y0113317D01*
X0234741Y0113761D01*
X0235275Y0114295D01*
X0235719Y0114906D01*
X0236062Y0115579D01*
X0236269Y0116215D01*
X0236756Y0115039D01*
X0236568Y0115039D01*
X0233887Y0112358D01*
X0233887Y0108565D01*
X0235265Y0107187D01*
X0235265Y0099589D01*
X0235752Y0098413D01*
X0244019Y0090145D01*
X0244920Y0089245D01*
X0246096Y0088757D01*
X0247320Y0088757D01*
X0247343Y0088702D01*
X0248862Y0087183D01*
X0249881Y0086761D01*
X0249509Y0086915D02*
X0246064Y0086915D01*
X0247532Y0088513D02*
X0244466Y0088513D01*
X0244052Y0090112D02*
X0242867Y0090112D01*
X0242454Y0091710D02*
X0241269Y0091710D01*
X0240855Y0093309D02*
X0239670Y0093309D01*
X0239257Y0094907D02*
X0238072Y0094907D01*
X0237658Y0096506D02*
X0236473Y0096506D01*
X0236060Y0098104D02*
X0220288Y0098104D01*
X0220602Y0096506D02*
X0220771Y0096506D01*
X0218689Y0099703D02*
X0235265Y0099703D01*
X0235265Y0101301D02*
X0208791Y0101301D01*
X0208791Y0102900D02*
X0235265Y0102900D01*
X0235265Y0104498D02*
X0210216Y0104498D01*
X0211815Y0106097D02*
X0235265Y0106097D01*
X0234756Y0107695D02*
X0213413Y0107695D01*
X0215012Y0109294D02*
X0233887Y0109294D01*
X0233887Y0110892D02*
X0216610Y0110892D01*
X0218209Y0112491D02*
X0219408Y0112491D01*
X0223820Y0112491D02*
X0234020Y0112491D01*
X0235070Y0114089D02*
X0235618Y0114089D01*
X0236098Y0115688D02*
X0236488Y0115688D01*
X0231814Y0115688D02*
X0231414Y0115688D01*
X0231414Y0114089D02*
X0231814Y0114089D01*
X0228159Y0114089D02*
X0225918Y0114089D01*
X0226741Y0115688D02*
X0227131Y0115688D01*
X0231414Y0117287D02*
X0231814Y0117287D01*
X0231814Y0118885D02*
X0231414Y0118885D01*
X0231414Y0120622D02*
X0231414Y0128222D01*
X0231236Y0128222D01*
X0230490Y0128104D01*
X0229772Y0127870D01*
X0229098Y0127527D01*
X0228487Y0127083D01*
X0227953Y0126549D01*
X0227509Y0125938D01*
X0227166Y0125265D01*
X0226959Y0124629D01*
X0226192Y0126481D01*
X0224673Y0128000D01*
X0223414Y0128521D01*
X0237926Y0128521D01*
X0238414Y0128034D01*
X0238414Y0127859D01*
X0237036Y0126481D01*
X0236269Y0124629D01*
X0236062Y0125265D01*
X0235719Y0125938D01*
X0235275Y0126549D01*
X0234741Y0127083D01*
X0234130Y0127527D01*
X0233457Y0127870D01*
X0232738Y0128104D01*
X0231992Y0128222D01*
X0231814Y0128222D01*
X0231814Y0120622D01*
X0231414Y0120622D01*
X0231414Y0122082D02*
X0231814Y0122082D01*
X0231814Y0123681D02*
X0231414Y0123681D01*
X0231414Y0125279D02*
X0231814Y0125279D01*
X0231814Y0126878D02*
X0231414Y0126878D01*
X0228281Y0126878D02*
X0225795Y0126878D01*
X0226690Y0125279D02*
X0227173Y0125279D01*
X0223523Y0128476D02*
X0237972Y0128476D01*
X0237433Y0126878D02*
X0234947Y0126878D01*
X0236055Y0125279D02*
X0236538Y0125279D01*
X0241614Y0129359D02*
X0241614Y0120422D01*
X0245918Y0114089D02*
X0247310Y0114089D01*
X0249408Y0112491D02*
X0243820Y0112491D01*
X0243043Y0110892D02*
X0289841Y0110892D01*
X0289837Y0109294D02*
X0243043Y0109294D01*
X0242173Y0107695D02*
X0289833Y0107695D01*
X0289829Y0106097D02*
X0261222Y0106097D01*
X0266276Y0104498D02*
X0289825Y0104498D01*
X0289821Y0102900D02*
X0267457Y0102900D01*
X0267649Y0101301D02*
X0289817Y0101301D01*
X0289813Y0099703D02*
X0267649Y0099703D01*
X0267649Y0098104D02*
X0289809Y0098104D01*
X0289805Y0096506D02*
X0267649Y0096506D01*
X0267649Y0094907D02*
X0289801Y0094907D01*
X0289797Y0093309D02*
X0267649Y0093309D01*
X0267649Y0091710D02*
X0289793Y0091710D01*
X0289789Y0090112D02*
X0267649Y0090112D01*
X0267649Y0088513D02*
X0289785Y0088513D01*
X0289781Y0086915D02*
X0267649Y0086915D01*
X0267649Y0085316D02*
X0289777Y0085316D01*
X0289773Y0083718D02*
X0267649Y0083718D01*
X0267649Y0082119D02*
X0289769Y0082119D01*
X0289765Y0080521D02*
X0267649Y0080521D01*
X0267649Y0078922D02*
X0289761Y0078922D01*
X0289757Y0077324D02*
X0267649Y0077324D01*
X0267630Y0075725D02*
X0289753Y0075725D01*
X0289749Y0074127D02*
X0266695Y0074127D01*
X0264449Y0076406D02*
X0264449Y0101800D01*
X0254921Y0101800D01*
X0254921Y0101761D01*
X0248621Y0106097D02*
X0241665Y0106097D01*
X0241665Y0104498D02*
X0247210Y0104498D01*
X0246548Y0102900D02*
X0241665Y0102900D01*
X0241914Y0101301D02*
X0246521Y0101301D01*
X0246929Y0099703D02*
X0243512Y0099703D01*
X0245111Y0098104D02*
X0247941Y0098104D01*
X0246709Y0096506D02*
X0249266Y0096506D01*
X0246732Y0091957D02*
X0254724Y0091957D01*
X0254921Y0091761D01*
X0246732Y0091957D02*
X0238465Y0100225D01*
X0238465Y0110461D01*
X0253820Y0112491D02*
X0289845Y0112491D01*
X0289849Y0114089D02*
X0255918Y0114089D01*
X0256741Y0115688D02*
X0289853Y0115688D01*
X0289857Y0117287D02*
X0257014Y0117287D01*
X0257014Y0118885D02*
X0289861Y0118885D01*
X0289865Y0120484D02*
X0257014Y0120484D01*
X0257014Y0122082D02*
X0289869Y0122082D01*
X0289873Y0123681D02*
X0257014Y0123681D01*
X0256690Y0125279D02*
X0289877Y0125279D01*
X0289881Y0126878D02*
X0255795Y0126878D01*
X0253523Y0128476D02*
X0289885Y0128476D01*
X0289889Y0130075D02*
X0286344Y0130075D01*
X0289113Y0131673D02*
X0289893Y0131673D01*
X0273019Y0130075D02*
X0244781Y0130075D01*
X0244814Y0128476D02*
X0249705Y0128476D01*
X0247433Y0126878D02*
X0245795Y0126878D01*
X0241614Y0129359D02*
X0239252Y0131721D01*
X0212087Y0131721D01*
X0192402Y0112036D01*
X0182559Y0112036D01*
X0177981Y0112491D02*
X0169617Y0112491D01*
X0169617Y0114089D02*
X0178138Y0114089D01*
X0179737Y0115688D02*
X0169617Y0115688D01*
X0169617Y0117287D02*
X0193126Y0117287D01*
X0194725Y0118885D02*
X0169617Y0118885D01*
X0169617Y0120484D02*
X0196323Y0120484D01*
X0197922Y0122082D02*
X0169617Y0122082D01*
X0169617Y0123681D02*
X0199520Y0123681D01*
X0201119Y0125279D02*
X0170995Y0125279D01*
X0170995Y0126878D02*
X0202717Y0126878D01*
X0204316Y0128476D02*
X0170995Y0128476D01*
X0166417Y0126997D02*
X0166417Y0110461D01*
X0180984Y0095894D01*
X0216024Y0095894D01*
X0213358Y0099703D02*
X0207409Y0099703D01*
X0204213Y0102981D02*
X0204213Y0103020D01*
X0221614Y0120422D01*
X0216214Y0120484D02*
X0205374Y0120484D01*
X0206973Y0122082D02*
X0216214Y0122082D01*
X0216214Y0123681D02*
X0208571Y0123681D01*
X0210170Y0125279D02*
X0216538Y0125279D01*
X0217433Y0126878D02*
X0211768Y0126878D01*
X0213367Y0128476D02*
X0219705Y0128476D01*
X0211327Y0134870D02*
X0178227Y0134870D01*
X0178227Y0133272D02*
X0209112Y0133272D01*
X0207513Y0131673D02*
X0178227Y0131673D01*
X0177240Y0130075D02*
X0205914Y0130075D01*
X0203776Y0118885D02*
X0215552Y0118885D01*
X0213953Y0117287D02*
X0202177Y0117287D01*
X0200579Y0115688D02*
X0212355Y0115688D01*
X0210756Y0114089D02*
X0198980Y0114089D01*
X0197382Y0112491D02*
X0209158Y0112491D01*
X0207559Y0110892D02*
X0195783Y0110892D01*
X0194143Y0109294D02*
X0205961Y0109294D01*
X0204362Y0107695D02*
X0184692Y0107695D01*
X0180426Y0107695D02*
X0173709Y0107695D01*
X0175307Y0106097D02*
X0200854Y0106097D01*
X0199635Y0104498D02*
X0176906Y0104498D01*
X0178504Y0102900D02*
X0199635Y0102900D01*
X0199635Y0101301D02*
X0180103Y0101301D01*
X0181701Y0099703D02*
X0200886Y0099703D01*
X0196391Y0090112D02*
X0214377Y0090112D01*
X0213734Y0091710D02*
X0169024Y0091710D01*
X0171942Y0093309D02*
X0172310Y0093309D01*
X0172310Y0094907D02*
X0171942Y0094907D01*
X0175894Y0094907D02*
X0177446Y0094907D01*
X0179044Y0093309D02*
X0175589Y0093309D01*
X0171509Y0100844D02*
X0164605Y0107749D01*
X0163704Y0108649D01*
X0163217Y0109825D01*
X0163217Y0113717D01*
X0133213Y0113717D01*
X0132239Y0114120D01*
X0131997Y0114363D01*
X0131997Y0113795D01*
X0131176Y0113795D01*
X0131107Y0113727D01*
X0130828Y0113611D01*
X0131107Y0113495D01*
X0131176Y0113427D01*
X0131997Y0113427D01*
X0131997Y0112402D01*
X0132256Y0111776D01*
X0132256Y0101444D01*
X0133824Y0101444D01*
X0133839Y0101438D01*
X0133853Y0101444D01*
X0137564Y0101444D01*
X0137874Y0101316D01*
X0138184Y0101444D01*
X0141895Y0101444D01*
X0142777Y0101079D01*
X0143011Y0100844D01*
X0144370Y0100844D01*
X0144370Y0096682D01*
X0144370Y0096682D01*
X0144370Y0100844D01*
X0145729Y0100844D01*
X0145963Y0101079D01*
X0146845Y0101444D01*
X0149669Y0101444D01*
X0148454Y0102660D01*
X0148454Y0106452D01*
X0151135Y0109134D01*
X0154928Y0109134D01*
X0157609Y0106452D01*
X0157609Y0102660D01*
X0156394Y0101444D01*
X0159218Y0101444D01*
X0159528Y0101316D01*
X0159838Y0101444D01*
X0163548Y0101444D01*
X0163858Y0101316D01*
X0164168Y0101444D01*
X0167879Y0101444D01*
X0168761Y0101079D01*
X0169244Y0100595D01*
X0169463Y0100721D01*
X0169920Y0100844D01*
X0171509Y0100844D01*
X0171052Y0101301D02*
X0168223Y0101301D01*
X0169453Y0102900D02*
X0157609Y0102900D01*
X0157609Y0104498D02*
X0167855Y0104498D01*
X0166256Y0106097D02*
X0157609Y0106097D01*
X0156366Y0107695D02*
X0164658Y0107695D01*
X0163437Y0109294D02*
X0132256Y0109294D01*
X0132256Y0110892D02*
X0163217Y0110892D01*
X0163217Y0112491D02*
X0131997Y0112491D01*
X0131997Y0114089D02*
X0132314Y0114089D01*
X0132256Y0107695D02*
X0149697Y0107695D01*
X0148454Y0106097D02*
X0132256Y0106097D01*
X0132256Y0104498D02*
X0148454Y0104498D01*
X0148454Y0102900D02*
X0132256Y0102900D01*
X0142239Y0101301D02*
X0146501Y0101301D01*
X0144370Y0099703D02*
X0144370Y0099703D01*
X0144370Y0098104D02*
X0144370Y0098104D01*
X0144370Y0096682D02*
X0144370Y0092520D01*
X0143983Y0092520D01*
X0144617Y0091885D01*
X0144617Y0088093D01*
X0141936Y0085411D01*
X0141773Y0085411D01*
X0148762Y0078422D01*
X0150738Y0078422D01*
X0152316Y0080000D01*
X0152872Y0080000D01*
X0152183Y0080690D01*
X0148104Y0080690D01*
X0147001Y0081146D01*
X0146158Y0081990D01*
X0145701Y0083093D01*
X0145701Y0092520D01*
X0144370Y0092520D01*
X0144370Y0096682D01*
X0144370Y0096682D01*
X0144370Y0096506D02*
X0144370Y0096506D01*
X0144370Y0094907D02*
X0144370Y0094907D01*
X0144370Y0093309D02*
X0144370Y0093309D01*
X0144617Y0091710D02*
X0145701Y0091710D01*
X0145701Y0090112D02*
X0144617Y0090112D01*
X0144617Y0088513D02*
X0145701Y0088513D01*
X0145701Y0086915D02*
X0143439Y0086915D01*
X0141868Y0085316D02*
X0145701Y0085316D01*
X0145701Y0083718D02*
X0143467Y0083718D01*
X0145065Y0082119D02*
X0146104Y0082119D01*
X0146664Y0080521D02*
X0152352Y0080521D01*
X0151239Y0078922D02*
X0148262Y0078922D01*
X0122647Y0058142D02*
X0213492Y0058142D01*
X0212142Y0056543D02*
X0124246Y0056543D01*
X0191179Y0027770D02*
X0267351Y0027770D01*
X0269159Y0029368D02*
X0192639Y0029368D01*
X0193088Y0030967D02*
X0271164Y0030967D01*
X0274987Y0032565D02*
X0193088Y0032565D01*
X0193088Y0034164D02*
X0289650Y0034164D01*
X0289654Y0035762D02*
X0194222Y0035762D01*
X0194884Y0037361D02*
X0289658Y0037361D01*
X0289662Y0038959D02*
X0194888Y0038959D01*
X0194888Y0040558D02*
X0289666Y0040558D01*
X0289670Y0042156D02*
X0194888Y0042156D01*
X0194888Y0043755D02*
X0289674Y0043755D01*
X0289678Y0045354D02*
X0194888Y0045354D01*
X0194295Y0046952D02*
X0289682Y0046952D01*
X0289686Y0048551D02*
X0261499Y0048551D01*
X0262445Y0050149D02*
X0289690Y0050149D01*
X0289694Y0051748D02*
X0255121Y0051748D01*
X0254721Y0051748D02*
X0228879Y0051748D01*
X0229250Y0053346D02*
X0247389Y0053346D01*
X0248317Y0054945D02*
X0229229Y0054945D01*
X0228566Y0056543D02*
X0250407Y0056543D01*
X0247904Y0058142D02*
X0227217Y0058142D01*
X0227970Y0050149D02*
X0247398Y0050149D01*
X0248343Y0048551D02*
X0225764Y0048551D01*
X0254721Y0048551D02*
X0255121Y0048551D01*
X0255121Y0050149D02*
X0254721Y0050149D01*
X0261526Y0054945D02*
X0289702Y0054945D01*
X0289706Y0056543D02*
X0259436Y0056543D01*
X0261939Y0058142D02*
X0289710Y0058142D01*
X0289714Y0059740D02*
X0262929Y0059740D01*
X0263321Y0061339D02*
X0289718Y0061339D01*
X0289722Y0062937D02*
X0263279Y0062937D01*
X0262617Y0064536D02*
X0289726Y0064536D01*
X0289730Y0066134D02*
X0261184Y0066134D01*
X0261530Y0067733D02*
X0289734Y0067733D01*
X0289738Y0069331D02*
X0262760Y0069331D01*
X0263321Y0070930D02*
X0289741Y0070930D01*
X0289745Y0072528D02*
X0263321Y0072528D01*
X0264449Y0076406D02*
X0228465Y0076406D01*
X0220733Y0083718D02*
X0216456Y0083718D01*
X0218632Y0085316D02*
X0220071Y0085316D01*
X0247663Y0085316D02*
X0247840Y0085316D01*
X0254921Y0071761D02*
X0254252Y0071091D01*
X0262453Y0053346D02*
X0289698Y0053346D01*
X0289646Y0032565D02*
X0284101Y0032565D01*
X0287775Y0030967D02*
X0289642Y0030967D01*
X0178827Y0109294D02*
X0172110Y0109294D01*
X0170512Y0110892D02*
X0177981Y0110892D01*
X0185381Y0115688D02*
X0191528Y0115688D01*
X0178227Y0136469D02*
X0265734Y0136469D01*
X0264746Y0138067D02*
X0178227Y0138067D01*
X0178227Y0139666D02*
X0264253Y0139666D01*
X0263760Y0141264D02*
X0178227Y0141264D01*
X0178227Y0142863D02*
X0263389Y0142863D01*
X0263389Y0144461D02*
X0178227Y0144461D01*
X0178227Y0146060D02*
X0263389Y0146060D01*
X0263483Y0147658D02*
X0178227Y0147658D01*
X0178227Y0149257D02*
X0263976Y0149257D01*
X0264469Y0150855D02*
X0184878Y0150855D01*
X0185737Y0152454D02*
X0265122Y0152454D01*
X0266212Y0154052D02*
X0185737Y0154052D01*
X0181857Y0154052D02*
X0180898Y0154052D01*
X0180898Y0152454D02*
X0181857Y0152454D01*
X0181857Y0150855D02*
X0180898Y0150855D01*
X0240012Y0134870D02*
X0266824Y0134870D01*
X0268191Y0133272D02*
X0242227Y0133272D01*
X0243826Y0131673D02*
X0270195Y0131673D01*
X0119173Y0111643D02*
X0105787Y0124635D01*
X0105787Y0149831D01*
X0108041Y0154052D02*
X0108427Y0154052D01*
X0084423Y0139666D02*
X0083323Y0139666D01*
X0092203Y0134870D02*
X0102587Y0134870D01*
X0102587Y0133272D02*
X0093802Y0133272D01*
X0095400Y0131673D02*
X0102587Y0131673D01*
X0102587Y0130075D02*
X0096999Y0130075D01*
X0098597Y0128476D02*
X0102587Y0128476D01*
X0102587Y0126878D02*
X0100196Y0126878D01*
X0101794Y0125279D02*
X0102587Y0125279D01*
D27*
X0086890Y0135658D03*
X0105787Y0149831D03*
X0166417Y0126997D03*
X0182559Y0112036D03*
X0162087Y0104556D03*
X0153031Y0104556D03*
X0161299Y0091170D03*
X0152638Y0087233D03*
X0162874Y0084477D03*
X0161693Y0075422D03*
X0154213Y0075422D03*
X0133740Y0078572D03*
X0122717Y0078572D03*
X0140039Y0089989D03*
X0119173Y0111643D03*
X0102244Y0108493D03*
X0102244Y0090776D03*
X0110906Y0064792D03*
X0082953Y0058493D03*
X0122323Y0041564D03*
X0182559Y0076209D03*
X0193189Y0086839D03*
X0216024Y0095894D03*
X0204213Y0102981D03*
X0238465Y0110461D03*
X0204606Y0065186D03*
D28*
X0200669Y0067942D02*
X0116417Y0067942D01*
X0113268Y0071091D01*
X0122717Y0078572D02*
X0133740Y0078572D01*
X0135709Y0087233D02*
X0147520Y0075422D01*
X0154213Y0075422D01*
X0161693Y0075422D02*
X0153425Y0083690D01*
X0148701Y0083690D01*
X0148701Y0096682D01*
X0153031Y0096682D02*
X0153031Y0104556D01*
X0144370Y0105343D02*
X0136102Y0113611D01*
X0128228Y0113611D01*
X0132953Y0113611D01*
X0154606Y0135265D01*
X0145551Y0135265D01*
X0130984Y0135265D01*
X0128228Y0138020D01*
X0128228Y0154359D02*
X0145551Y0137036D01*
X0145551Y0135265D01*
X0154606Y0135265D02*
X0181378Y0135265D01*
X0144370Y0105343D02*
X0144370Y0096682D01*
X0140039Y0096682D02*
X0140039Y0089989D01*
X0135709Y0087233D02*
X0135709Y0096682D01*
X0131969Y0096682D02*
X0129213Y0099438D01*
X0115236Y0099438D01*
X0104213Y0099438D02*
X0104213Y0100619D01*
X0102244Y0102587D01*
X0152638Y0087233D02*
X0157362Y0091957D01*
X0157362Y0096682D01*
X0161299Y0096288D02*
X0161693Y0096682D01*
X0161299Y0096288D02*
X0161299Y0091170D01*
X0166024Y0087627D02*
X0162874Y0084477D01*
X0166024Y0087627D02*
X0166024Y0096682D01*
X0203031Y0101800D02*
X0204213Y0102981D01*
X0203819Y0071091D02*
X0200669Y0067942D01*
X0203819Y0071091D02*
X0254252Y0071091D01*
M02*
